<svg width="412" height="824" viewBox="0 0 412 824" fill="none" xmlns="http://www.w3.org/2000/svg">
<g clip-path="url(#clip0_258_314)">
<rect width="412" height="824" rx="18" fill="#F5F7F8"/>
<rect x="24" y="728" width="364" height="60" rx="16" fill="#FF6445"/>
<path d="M180.546 751.544H182.706V760.952H187.554V763H180.546V751.544ZM193.234 763.256C192.392 763.256 191.64 763.069 190.978 762.696C190.317 762.312 189.8 761.795 189.426 761.144C189.064 760.483 188.882 759.741 188.882 758.92C188.882 758.109 189.064 757.373 189.426 756.712C189.8 756.051 190.317 755.533 190.978 755.16C191.64 754.776 192.392 754.584 193.234 754.584C194.066 754.584 194.813 754.776 195.474 755.16C196.136 755.533 196.648 756.051 197.01 756.712C197.384 757.373 197.57 758.109 197.57 758.92C197.57 759.741 197.384 760.483 197.01 761.144C196.648 761.795 196.136 762.312 195.474 762.696C194.813 763.069 194.066 763.256 193.234 763.256ZM193.234 761.32C193.64 761.32 194.013 761.224 194.354 761.032C194.696 760.84 194.968 760.563 195.17 760.2C195.373 759.837 195.474 759.411 195.474 758.92C195.474 758.44 195.373 758.019 195.17 757.656C194.968 757.293 194.696 757.016 194.354 756.824C194.013 756.632 193.64 756.536 193.234 756.536C192.829 756.536 192.456 756.632 192.114 756.824C191.773 757.016 191.496 757.293 191.282 757.656C191.08 758.019 190.978 758.44 190.978 758.92C190.978 759.4 191.08 759.827 191.282 760.2C191.496 760.563 191.773 760.84 192.114 761.032C192.456 761.224 192.829 761.32 193.234 761.32ZM203.334 766.712C202.299 766.712 201.441 766.477 200.758 766.008C200.075 765.549 199.617 764.995 199.382 764.344L201.35 763.544C201.521 763.949 201.782 764.269 202.134 764.504C202.486 764.739 202.886 764.856 203.334 764.856C203.995 764.856 204.518 764.653 204.902 764.248C205.297 763.843 205.494 763.267 205.494 762.52V761.88H205.366C205.11 762.243 204.774 762.52 204.358 762.712C203.942 762.904 203.467 763 202.934 763C202.262 763 201.633 762.829 201.046 762.488C200.47 762.136 200.006 761.645 199.654 761.016C199.302 760.376 199.126 759.635 199.126 758.792C199.126 757.949 199.302 757.213 199.654 756.584C200.006 755.944 200.47 755.453 201.046 755.112C201.633 754.76 202.262 754.584 202.934 754.584C203.467 754.584 203.942 754.68 204.358 754.872C204.774 755.064 205.11 755.341 205.366 755.704H205.494V754.84H207.51V762.44C207.51 763.315 207.339 764.072 206.998 764.712C206.657 765.352 206.171 765.843 205.542 766.184C204.913 766.536 204.177 766.712 203.334 766.712ZM203.366 761.096C203.953 761.096 204.454 760.893 204.87 760.488C205.286 760.072 205.494 759.507 205.494 758.792C205.494 758.056 205.286 757.491 204.87 757.096C204.465 756.691 203.963 756.488 203.366 756.488C202.769 756.488 202.262 756.691 201.846 757.096C201.43 757.501 201.222 758.067 201.222 758.792C201.222 759.517 201.43 760.083 201.846 760.488C202.262 760.893 202.769 761.096 203.366 761.096ZM213.784 763.256C212.942 763.256 212.19 763.069 211.528 762.696C210.867 762.312 210.35 761.795 209.976 761.144C209.614 760.483 209.432 759.741 209.432 758.92C209.432 758.109 209.614 757.373 209.976 756.712C210.35 756.051 210.867 755.533 211.528 755.16C212.19 754.776 212.942 754.584 213.784 754.584C214.616 754.584 215.363 754.776 216.024 755.16C216.686 755.533 217.198 756.051 217.56 756.712C217.934 757.373 218.12 758.109 218.12 758.92C218.12 759.741 217.934 760.483 217.56 761.144C217.198 761.795 216.686 762.312 216.024 762.696C215.363 763.069 214.616 763.256 213.784 763.256ZM213.784 761.32C214.19 761.32 214.563 761.224 214.904 761.032C215.246 760.84 215.518 760.563 215.72 760.2C215.923 759.837 216.024 759.411 216.024 758.92C216.024 758.44 215.923 758.019 215.72 757.656C215.518 757.293 215.246 757.016 214.904 756.824C214.563 756.632 214.19 756.536 213.784 756.536C213.379 756.536 213.006 756.632 212.664 756.824C212.323 757.016 212.046 757.293 211.832 757.656C211.63 758.019 211.528 758.44 211.528 758.92C211.528 759.4 211.63 759.827 211.832 760.2C212.046 760.563 212.323 760.84 212.664 761.032C213.006 761.224 213.379 761.32 213.784 761.32ZM222.99 763.256C222.009 763.256 221.262 762.952 220.75 762.344C220.238 761.736 219.982 760.888 219.982 759.8V754.84H222.078V759.544C222.078 760.099 222.211 760.536 222.478 760.856C222.745 761.165 223.097 761.32 223.534 761.32C224.131 761.32 224.606 761.101 224.958 760.664C225.31 760.227 225.486 759.672 225.486 759V754.84H227.582V763H225.614V761.976H225.486C225.241 762.371 224.894 762.685 224.446 762.92C224.009 763.144 223.523 763.256 222.99 763.256ZM233.654 763.128C233.249 763.128 232.875 763.069 232.534 762.952C232.193 762.824 231.915 762.653 231.702 762.44C231.201 761.96 230.95 761.277 230.95 760.392V756.632H229.526V754.84H230.95V752.536H233.046V754.84H235.046V756.632H233.046V760.008C233.046 760.424 233.137 760.723 233.318 760.904C233.467 761.075 233.723 761.16 234.086 761.16C234.289 761.16 234.454 761.133 234.582 761.08C234.721 761.027 234.897 760.936 235.11 760.808V762.856C234.651 763.037 234.166 763.128 233.654 763.128Z" fill="white"/>
<rect x="170" y="814" width="72" height="2" rx="1" fill="#1C1B1F"/>
<g clip-path="url(#clip1_258_314)">
<rect width="412" height="52" fill="#0088FF"/>
</g>
<path d="M26.0781 35.7012H26.2148C26.8438 35.7012 27.3678 35.6191 27.7871 35.4551C28.2109 35.2865 28.5482 35.054 28.7988 34.7578C29.0495 34.4616 29.2295 34.113 29.3389 33.7119C29.4482 33.3109 29.5029 32.8757 29.5029 32.4062V30.6904C29.5029 30.2848 29.4596 29.9294 29.373 29.624C29.291 29.3141 29.1725 29.0566 29.0176 28.8516C28.8672 28.6419 28.6917 28.4847 28.4912 28.3799C28.2952 28.2751 28.0833 28.2227 27.8555 28.2227C27.6048 28.2227 27.3792 28.2796 27.1787 28.3936C26.9827 28.5029 26.8164 28.6556 26.6797 28.8516C26.5475 29.043 26.445 29.2686 26.3721 29.5283C26.3037 29.7835 26.2695 30.057 26.2695 30.3486C26.2695 30.6221 26.3014 30.8864 26.3652 31.1416C26.4336 31.3923 26.5339 31.6156 26.666 31.8115C26.7982 32.0075 26.9645 32.1624 27.165 32.2764C27.3656 32.3903 27.6003 32.4473 27.8691 32.4473C28.1243 32.4473 28.359 32.3994 28.5732 32.3037C28.7874 32.2035 28.9743 32.069 29.1338 31.9004C29.2933 31.7318 29.4186 31.5426 29.5098 31.333C29.6009 31.1234 29.651 30.9092 29.6602 30.6904L30.2891 30.8818C30.2891 31.2282 30.2161 31.57 30.0703 31.9072C29.929 32.2399 29.7308 32.5452 29.4756 32.8232C29.2249 33.0967 28.931 33.3154 28.5938 33.4795C28.2611 33.6436 27.8988 33.7256 27.5068 33.7256C27.0329 33.7256 26.6136 33.6367 26.249 33.459C25.889 33.2767 25.5882 33.0306 25.3467 32.7207C25.1097 32.4108 24.932 32.0553 24.8135 31.6543C24.695 31.2533 24.6357 30.8317 24.6357 30.3896C24.6357 29.9111 24.7087 29.4622 24.8545 29.043C25.0003 28.6237 25.2122 28.2546 25.4902 27.9355C25.7682 27.612 26.1055 27.3613 26.502 27.1836C26.903 27.0013 27.3564 26.9102 27.8623 26.9102C28.4001 26.9102 28.8717 27.015 29.2773 27.2246C29.6829 27.4342 30.0247 27.7236 30.3027 28.0928C30.5807 28.4619 30.7904 28.8903 30.9316 29.3779C31.0729 29.8656 31.1436 30.3896 31.1436 30.9502V31.5312C31.1436 32.1191 31.0911 32.6865 30.9863 33.2334C30.8815 33.7757 30.7106 34.2793 30.4736 34.7441C30.2412 35.2044 29.9336 35.61 29.5508 35.9609C29.1725 36.3073 28.7077 36.5785 28.1562 36.7744C27.6094 36.9658 26.9668 37.0615 26.2285 37.0615H26.0781V35.7012ZM33.1019 36.1797C33.1019 35.9245 33.1885 35.7103 33.3617 35.5371C33.5349 35.3594 33.7696 35.2705 34.0658 35.2705C34.3666 35.2705 34.6013 35.3594 34.7699 35.5371C34.9431 35.7103 35.0296 35.9245 35.0296 36.1797C35.0296 36.4349 34.9431 36.6491 34.7699 36.8223C34.6013 36.9954 34.3666 37.082 34.0658 37.082C33.7696 37.082 33.5349 36.9954 33.3617 36.8223C33.1885 36.6491 33.1019 36.4349 33.1019 36.1797ZM33.1088 30.3555C33.1088 30.1003 33.1953 29.8861 33.3685 29.7129C33.5417 29.5352 33.7764 29.4463 34.0726 29.4463C34.3734 29.4463 34.6081 29.5352 34.7767 29.7129C34.9499 29.8861 35.0365 30.1003 35.0365 30.3555C35.0365 30.6107 34.9499 30.8249 34.7767 30.998C34.6081 31.1712 34.3734 31.2578 34.0726 31.2578C33.7764 31.2578 33.5417 31.1712 33.3685 30.998C33.1953 30.8249 33.1088 30.6107 33.1088 30.3555ZM38.7517 31.2783H39.7361C40.1189 31.2783 40.4356 31.2122 40.6862 31.0801C40.9415 30.9479 41.1306 30.7656 41.2536 30.5332C41.3767 30.3008 41.4382 30.0342 41.4382 29.7334C41.4382 29.4189 41.3812 29.1501 41.2673 28.9268C41.1579 28.6989 40.9893 28.5234 40.7614 28.4004C40.5381 28.2773 40.2533 28.2158 39.907 28.2158C39.6153 28.2158 39.351 28.2751 39.114 28.3936C38.8816 28.5075 38.697 28.6715 38.5603 28.8857C38.4236 29.0954 38.3552 29.346 38.3552 29.6377H36.7009C36.7009 29.109 36.8399 28.6396 37.1179 28.2295C37.3959 27.8193 37.7741 27.498 38.2527 27.2656C38.7357 27.0286 39.278 26.9102 39.8796 26.9102C40.5222 26.9102 41.0827 27.0173 41.5612 27.2314C42.0443 27.4411 42.4203 27.7555 42.6892 28.1748C42.9581 28.5941 43.0925 29.1136 43.0925 29.7334C43.0925 30.016 43.0264 30.3031 42.8943 30.5947C42.7621 30.8864 42.5661 31.153 42.3064 31.3945C42.0466 31.6315 41.723 31.8252 41.3357 31.9756C40.9483 32.1214 40.4994 32.1943 39.989 32.1943H38.7517V31.2783ZM38.7517 32.5635V31.6611H39.989C40.5723 31.6611 41.0691 31.7295 41.4792 31.8662C41.8939 32.0029 42.2312 32.1921 42.4909 32.4336C42.7507 32.6706 42.9398 32.9417 43.0583 33.2471C43.1814 33.5524 43.2429 33.876 43.2429 34.2178C43.2429 34.6826 43.1586 35.0973 42.99 35.4619C42.8259 35.8219 42.5912 36.1273 42.2859 36.3779C41.9805 36.6286 41.6228 36.8177 41.2126 36.9453C40.807 37.0729 40.365 37.1367 39.8864 37.1367C39.4581 37.1367 39.0479 37.0775 38.656 36.959C38.264 36.8405 37.9131 36.665 37.6032 36.4326C37.2933 36.1956 37.0473 35.9017 36.865 35.5508C36.6872 35.1953 36.5984 34.7852 36.5984 34.3203H38.2458C38.2458 34.6165 38.3142 34.8786 38.4509 35.1064C38.5922 35.3298 38.7881 35.5052 39.0388 35.6328C39.294 35.7604 39.5857 35.8242 39.9138 35.8242C40.2601 35.8242 40.5586 35.7627 40.8093 35.6396C41.0599 35.5166 41.2514 35.3343 41.3835 35.0928C41.5202 34.8512 41.5886 34.5596 41.5886 34.2178C41.5886 33.8304 41.5134 33.516 41.363 33.2744C41.2126 33.0329 40.9984 32.8551 40.7204 32.7412C40.4424 32.6227 40.1143 32.5635 39.7361 32.5635H38.7517ZM51.5382 31.1895V32.8164C51.5382 33.5957 51.4607 34.2611 51.3057 34.8125C51.1554 35.3594 50.9366 35.8037 50.6495 36.1455C50.3624 36.4873 50.0183 36.738 49.6173 36.8975C49.2208 37.057 48.7764 37.1367 48.2843 37.1367C47.8923 37.1367 47.5277 37.0866 47.1905 36.9863C46.8578 36.8861 46.557 36.7288 46.2882 36.5146C46.0193 36.3005 45.7891 36.0247 45.5977 35.6875C45.4109 35.3457 45.2651 34.9378 45.1602 34.4639C45.06 33.9899 45.0098 33.4408 45.0098 32.8164V31.1895C45.0098 30.4056 45.0873 29.7448 45.2423 29.207C45.3972 28.6647 45.6182 28.2249 45.9054 27.8877C46.1925 27.5459 46.5343 27.2975 46.9307 27.1426C47.3318 26.9876 47.7784 26.9102 48.2706 26.9102C48.6671 26.9102 49.0317 26.9603 49.3643 27.0605C49.7016 27.1562 50.0024 27.3089 50.2667 27.5186C50.5356 27.7282 50.7634 28.0016 50.9503 28.3389C51.1417 28.6715 51.2875 29.0749 51.3878 29.5488C51.488 30.0182 51.5382 30.5651 51.5382 31.1895ZM49.8907 33.0488V30.9434C49.8907 30.5469 49.8679 30.1982 49.8223 29.8975C49.7768 29.5921 49.7084 29.3346 49.6173 29.125C49.5307 28.9108 49.4213 28.7376 49.2891 28.6055C49.157 28.4688 49.0066 28.3708 48.838 28.3115C48.6693 28.2477 48.4802 28.2158 48.2706 28.2158C48.0154 28.2158 47.7875 28.266 47.587 28.3662C47.3865 28.4619 47.2179 28.6169 47.0811 28.8311C46.9444 29.0452 46.8396 29.3278 46.7667 29.6787C46.6983 30.0251 46.6641 30.4466 46.6641 30.9434V33.0488C46.6641 33.4499 46.6869 33.8031 46.7325 34.1084C46.7781 34.4137 46.8464 34.6758 46.9376 34.8945C47.0287 35.1087 47.1381 35.2865 47.2657 35.4277C47.3979 35.5645 47.5483 35.6647 47.7169 35.7285C47.8901 35.7923 48.0792 35.8242 48.2843 35.8242C48.544 35.8242 48.7742 35.7741 48.9747 35.6738C49.1752 35.5736 49.3438 35.4141 49.4805 35.1953C49.6173 34.972 49.7198 34.6826 49.7882 34.3271C49.8565 33.9717 49.8907 33.5456 49.8907 33.0488Z" fill="white"/>
<path opacity="0.1" d="M350.5 26.4165C347.1 26.4165 344.125 27.904 342 30.2415L350.5 40.5832L359 30.2415C356.875 27.904 353.9 26.4165 350.5 26.4165Z" fill="white"/>
<path d="M373.584 26.4165L359.417 40.5832H373.584V26.4165Z" fill="white"/>
<path opacity="0.3" d="M385.5 26H382.5V27.5H381C380.448 27.5 380 28.0037 380 28.625V39.875C380 40.4963 380.448 41 381 41H387C387.552 41 388 40.4963 388 39.875V28.625C388 28.0037 387.552 27.5 387 27.5H385.5V26Z" fill="white"/>
<path d="M380 34C380 34.5833 380 39.3667 380 39.95C380 40.5299 380.448 41 381 41H387C387.552 41 388 40.5299 388 39.95C388 39.3667 388 34.5833 388 34H380Z" fill="white"/>
<path d="M63.9037 434.38L59.0637 426.68H61.0437L64.7037 432.68H64.7837L68.3837 426.68H70.3637L65.6037 434.38V441H63.9037V434.38ZM74.626 441.32C73.626 441.32 72.726 441.08 71.926 440.6C71.126 440.12 70.4993 439.467 70.046 438.64C69.606 437.813 69.386 436.9 69.386 435.9C69.386 434.9 69.606 433.987 70.046 433.16C70.4993 432.333 71.126 431.68 71.926 431.2C72.726 430.72 73.626 430.48 74.626 430.48C75.626 430.48 76.526 430.72 77.326 431.2C78.126 431.68 78.746 432.333 79.186 433.16C79.6393 433.987 79.866 434.9 79.866 435.9C79.866 436.9 79.6393 437.813 79.186 438.64C78.746 439.467 78.126 440.12 77.326 440.6C76.526 441.08 75.626 441.32 74.626 441.32ZM74.626 439.78C75.2527 439.78 75.8327 439.627 76.366 439.32C76.9127 439 77.346 438.547 77.666 437.96C77.9993 437.373 78.166 436.687 78.166 435.9C78.166 435.113 77.9993 434.427 77.666 433.84C77.346 433.253 76.9127 432.807 76.366 432.5C75.8327 432.18 75.2527 432.02 74.626 432.02C73.9993 432.02 73.4127 432.18 72.866 432.5C72.3193 432.807 71.8793 433.253 71.546 433.84C71.226 434.427 71.066 435.113 71.066 435.9C71.066 436.687 71.226 437.373 71.546 437.96C71.8793 438.547 72.3193 439 72.866 439.32C73.4127 439.627 73.9993 439.78 74.626 439.78ZM85.4424 441.32C84.2158 441.32 83.2758 440.96 82.6224 440.24C81.9824 439.52 81.6624 438.513 81.6624 437.22V430.8H83.3624V436.96C83.3624 437.933 83.5824 438.647 84.0224 439.1C84.4624 439.553 85.0558 439.78 85.8024 439.78C86.3758 439.78 86.8824 439.627 87.3224 439.32C87.7758 439.013 88.1224 438.613 88.3624 438.12C88.6158 437.627 88.7424 437.107 88.7424 436.56V430.8H90.4424V441H88.8224V439.52H88.7424C88.4624 440.027 88.0158 440.453 87.4024 440.8C86.7891 441.147 86.1358 441.32 85.4424 441.32ZM97.6018 426.68H99.3018V430.9L99.2218 432.3H99.3018C99.5818 431.78 100.022 431.347 100.622 431C101.235 430.653 101.902 430.48 102.622 430.48C103.862 430.48 104.808 430.847 105.462 431.58C106.115 432.3 106.442 433.26 106.442 434.46V441H104.742V434.72C104.742 433.8 104.508 433.12 104.042 432.68C103.575 432.24 102.968 432.02 102.222 432.02C101.688 432.02 101.195 432.18 100.742 432.5C100.302 432.82 99.9485 433.233 99.6818 433.74C99.4285 434.247 99.3018 434.773 99.3018 435.32V441H97.6018V426.68ZM112.053 441.32C111.307 441.32 110.64 441.173 110.053 440.88C109.467 440.587 109.013 440.187 108.693 439.68C108.373 439.16 108.213 438.573 108.213 437.92C108.213 436.84 108.62 436 109.433 435.4C110.247 434.787 111.273 434.48 112.513 434.48C113.127 434.48 113.693 434.547 114.213 434.68C114.747 434.813 115.153 434.967 115.433 435.14V434.52C115.433 433.76 115.167 433.153 114.633 432.7C114.1 432.233 113.427 432 112.613 432C112.04 432 111.513 432.127 111.033 432.38C110.553 432.62 110.173 432.96 109.893 433.4L108.613 432.44C109.013 431.827 109.56 431.347 110.253 431C110.96 430.653 111.74 430.48 112.593 430.48C113.98 430.48 115.067 430.847 115.853 431.58C116.653 432.3 117.053 433.287 117.053 434.54V441H115.433V439.54H115.353C115.06 440.033 114.62 440.453 114.033 440.8C113.447 441.147 112.787 441.32 112.053 441.32ZM112.213 439.82C112.787 439.82 113.32 439.673 113.813 439.38C114.307 439.087 114.7 438.693 114.993 438.2C115.287 437.707 115.433 437.167 115.433 436.58C115.113 436.367 114.72 436.193 114.253 436.06C113.787 435.927 113.293 435.86 112.773 435.86C111.84 435.86 111.133 436.053 110.653 436.44C110.187 436.827 109.953 437.327 109.953 437.94C109.953 438.5 110.167 438.953 110.593 439.3C111.02 439.647 111.56 439.82 112.213 439.82ZM118.103 430.8H119.923L123.083 439H123.123L126.323 430.8H128.103L123.943 441H122.223L118.103 430.8ZM133.743 441.32C132.77 441.32 131.897 441.087 131.123 440.62C130.35 440.153 129.743 439.513 129.303 438.7C128.877 437.873 128.663 436.947 128.663 435.92C128.663 434.933 128.863 434.027 129.263 433.2C129.677 432.373 130.257 431.713 131.003 431.22C131.75 430.727 132.617 430.48 133.603 430.48C134.603 430.48 135.47 430.707 136.203 431.16C136.937 431.6 137.497 432.213 137.883 433C138.283 433.787 138.483 434.687 138.483 435.7C138.483 435.9 138.463 436.073 138.423 436.22H130.363C130.403 436.993 130.59 437.647 130.923 438.18C131.257 438.713 131.677 439.113 132.183 439.38C132.703 439.647 133.243 439.78 133.803 439.78C135.11 439.78 136.117 439.167 136.823 437.94L138.263 438.64C137.823 439.467 137.223 440.12 136.463 440.6C135.717 441.08 134.81 441.32 133.743 441.32ZM136.683 434.82C136.657 434.393 136.537 433.967 136.323 433.54C136.11 433.113 135.77 432.753 135.303 432.46C134.85 432.167 134.277 432.02 133.583 432.02C132.783 432.02 132.103 432.28 131.543 432.8C130.997 433.307 130.637 433.98 130.463 434.82H136.683ZM148.681 441.32C147.588 441.32 146.675 441.067 145.941 440.56C145.208 440.04 144.688 439.38 144.381 438.58L145.901 437.9C146.155 438.513 146.528 438.987 147.021 439.32C147.528 439.653 148.081 439.82 148.681 439.82C149.321 439.82 149.868 439.693 150.321 439.44C150.775 439.173 151.001 438.8 151.001 438.32C151.001 437.893 150.821 437.553 150.461 437.3C150.101 437.033 149.535 436.807 148.761 436.62L147.521 436.3C146.708 436.1 146.041 435.76 145.521 435.28C145.001 434.8 144.741 434.18 144.741 433.42C144.741 432.833 144.915 432.32 145.261 431.88C145.621 431.427 146.095 431.08 146.681 430.84C147.268 430.6 147.901 430.48 148.581 430.48C149.475 430.48 150.268 430.673 150.961 431.06C151.668 431.447 152.168 431.987 152.461 432.68L150.981 433.36C150.528 432.453 149.721 432 148.561 432C148.001 432 147.508 432.133 147.081 432.4C146.668 432.653 146.461 432.98 146.461 433.38C146.461 433.753 146.608 434.06 146.901 434.3C147.195 434.527 147.635 434.713 148.221 434.86L149.701 435.24C150.701 435.493 151.455 435.873 151.961 436.38C152.468 436.873 152.721 437.48 152.721 438.2C152.721 438.827 152.541 439.38 152.181 439.86C151.821 440.327 151.335 440.687 150.721 440.94C150.108 441.193 149.428 441.32 148.681 441.32ZM158.274 441.32C157.048 441.32 156.108 440.96 155.454 440.24C154.814 439.52 154.494 438.513 154.494 437.22V430.8H156.194V436.96C156.194 437.933 156.414 438.647 156.854 439.1C157.294 439.553 157.888 439.78 158.634 439.78C159.208 439.78 159.714 439.627 160.154 439.32C160.608 439.013 160.954 438.613 161.194 438.12C161.448 437.627 161.574 437.107 161.574 436.56V430.8H163.274V441H161.654V439.52H161.574C161.294 440.027 160.848 440.453 160.234 440.8C159.621 441.147 158.968 441.32 158.274 441.32ZM170.308 441.32C169.321 441.32 168.434 441.087 167.648 440.62C166.861 440.14 166.248 439.493 165.808 438.68C165.368 437.853 165.148 436.927 165.148 435.9C165.148 434.873 165.368 433.947 165.808 433.12C166.248 432.293 166.861 431.647 167.648 431.18C168.434 430.713 169.321 430.48 170.308 430.48C171.414 430.48 172.341 430.74 173.088 431.26C173.848 431.767 174.388 432.447 174.708 433.3L173.168 433.94C172.914 433.313 172.534 432.84 172.028 432.52C171.534 432.187 170.934 432.02 170.228 432.02C169.628 432.02 169.068 432.187 168.548 432.52C168.028 432.84 167.608 433.293 167.288 433.88C166.981 434.467 166.828 435.14 166.828 435.9C166.828 436.66 166.981 437.333 167.288 437.92C167.608 438.507 168.028 438.967 168.548 439.3C169.068 439.62 169.628 439.78 170.228 439.78C170.948 439.78 171.568 439.613 172.088 439.28C172.608 438.947 172.994 438.473 173.248 437.86L174.768 438.5C174.421 439.34 173.861 440.02 173.088 440.54C172.328 441.06 171.401 441.32 170.308 441.32ZM181.128 441.32C180.141 441.32 179.255 441.087 178.468 440.62C177.681 440.14 177.068 439.493 176.628 438.68C176.188 437.853 175.968 436.927 175.968 435.9C175.968 434.873 176.188 433.947 176.628 433.12C177.068 432.293 177.681 431.647 178.468 431.18C179.255 430.713 180.141 430.48 181.128 430.48C182.235 430.48 183.161 430.74 183.908 431.26C184.668 431.767 185.208 432.447 185.528 433.3L183.988 433.94C183.735 433.313 183.355 432.84 182.848 432.52C182.355 432.187 181.755 432.02 181.048 432.02C180.448 432.02 179.888 432.187 179.368 432.52C178.848 432.84 178.428 433.293 178.108 433.88C177.801 434.467 177.648 435.14 177.648 435.9C177.648 436.66 177.801 437.333 178.108 437.92C178.428 438.507 178.848 438.967 179.368 439.3C179.888 439.62 180.448 439.78 181.048 439.78C181.768 439.78 182.388 439.613 182.908 439.28C183.428 438.947 183.815 438.473 184.068 437.86L185.588 438.5C185.241 439.34 184.681 440.02 183.908 440.54C183.148 441.06 182.221 441.32 181.128 441.32ZM191.868 441.32C190.895 441.32 190.022 441.087 189.248 440.62C188.475 440.153 187.868 439.513 187.428 438.7C187.002 437.873 186.788 436.947 186.788 435.92C186.788 434.933 186.988 434.027 187.388 433.2C187.802 432.373 188.382 431.713 189.128 431.22C189.875 430.727 190.742 430.48 191.728 430.48C192.728 430.48 193.595 430.707 194.328 431.16C195.062 431.6 195.622 432.213 196.008 433C196.408 433.787 196.608 434.687 196.608 435.7C196.608 435.9 196.588 436.073 196.548 436.22H188.488C188.528 436.993 188.715 437.647 189.048 438.18C189.382 438.713 189.802 439.113 190.308 439.38C190.828 439.647 191.368 439.78 191.928 439.78C193.235 439.78 194.242 439.167 194.948 437.94L196.388 438.64C195.948 439.467 195.348 440.12 194.588 440.6C193.842 441.08 192.935 441.32 191.868 441.32ZM194.808 434.82C194.782 434.393 194.662 433.967 194.448 433.54C194.235 433.113 193.895 432.753 193.428 432.46C192.975 432.167 192.402 432.02 191.708 432.02C190.908 432.02 190.228 432.28 189.668 432.8C189.122 433.307 188.762 433.98 188.588 434.82H194.808ZM202.256 441.32C201.162 441.32 200.249 441.067 199.516 440.56C198.782 440.04 198.262 439.38 197.956 438.58L199.476 437.9C199.729 438.513 200.102 438.987 200.596 439.32C201.102 439.653 201.656 439.82 202.256 439.82C202.896 439.82 203.442 439.693 203.896 439.44C204.349 439.173 204.576 438.8 204.576 438.32C204.576 437.893 204.396 437.553 204.036 437.3C203.676 437.033 203.109 436.807 202.336 436.62L201.096 436.3C200.282 436.1 199.616 435.76 199.096 435.28C198.576 434.8 198.316 434.18 198.316 433.42C198.316 432.833 198.489 432.32 198.836 431.88C199.196 431.427 199.669 431.08 200.256 430.84C200.842 430.6 201.476 430.48 202.156 430.48C203.049 430.48 203.842 430.673 204.536 431.06C205.242 431.447 205.742 431.987 206.036 432.68L204.556 433.36C204.102 432.453 203.296 432 202.136 432C201.576 432 201.082 432.133 200.656 432.4C200.242 432.653 200.036 432.98 200.036 433.38C200.036 433.753 200.182 434.06 200.476 434.3C200.769 434.527 201.209 434.713 201.796 434.86L203.276 435.24C204.276 435.493 205.029 435.873 205.536 436.38C206.042 436.873 206.296 437.48 206.296 438.2C206.296 438.827 206.116 439.38 205.756 439.86C205.396 440.327 204.909 440.687 204.296 440.94C203.682 441.193 203.002 441.32 202.256 441.32ZM211.709 441.32C210.615 441.32 209.702 441.067 208.969 440.56C208.235 440.04 207.715 439.38 207.409 438.58L208.929 437.9C209.182 438.513 209.555 438.987 210.049 439.32C210.555 439.653 211.109 439.82 211.709 439.82C212.349 439.82 212.895 439.693 213.349 439.44C213.802 439.173 214.029 438.8 214.029 438.32C214.029 437.893 213.849 437.553 213.489 437.3C213.129 437.033 212.562 436.807 211.789 436.62L210.549 436.3C209.735 436.1 209.069 435.76 208.549 435.28C208.029 434.8 207.769 434.18 207.769 433.42C207.769 432.833 207.942 432.32 208.289 431.88C208.649 431.427 209.122 431.08 209.709 430.84C210.295 430.6 210.929 430.48 211.609 430.48C212.502 430.48 213.295 430.673 213.989 431.06C214.695 431.447 215.195 431.987 215.489 432.68L214.009 433.36C213.555 432.453 212.749 432 211.589 432C211.029 432 210.535 432.133 210.109 432.4C209.695 432.653 209.489 432.98 209.489 433.38C209.489 433.753 209.635 434.06 209.929 434.3C210.222 434.527 210.662 434.713 211.249 434.86L212.729 435.24C213.729 435.493 214.482 435.873 214.989 436.38C215.495 436.873 215.749 437.48 215.749 438.2C215.749 438.827 215.569 439.38 215.209 439.86C214.849 440.327 214.362 440.687 213.749 440.94C213.135 441.193 212.455 441.32 211.709 441.32ZM218.782 432.34H216.902V430.8H218.782V429.7C218.782 429.06 218.928 428.5 219.222 428.02C219.515 427.54 219.908 427.173 220.402 426.92C220.895 426.653 221.442 426.52 222.042 426.52C222.615 426.52 223.115 426.6 223.542 426.76V428.42C223.302 428.327 223.075 428.253 222.862 428.2C222.648 428.133 222.395 428.1 222.102 428.1C221.662 428.1 221.282 428.26 220.962 428.58C220.642 428.887 220.482 429.32 220.482 429.88V430.8H223.102V432.34H220.482V441H218.782V432.34ZM228.685 441.32C227.458 441.32 226.518 440.96 225.865 440.24C225.225 439.52 224.905 438.513 224.905 437.22V430.8H226.605V436.96C226.605 437.933 226.825 438.647 227.265 439.1C227.705 439.553 228.298 439.78 229.045 439.78C229.618 439.78 230.125 439.627 230.565 439.32C231.018 439.013 231.365 438.613 231.605 438.12C231.858 437.627 231.985 437.107 231.985 436.56V430.8H233.685V441H232.065V439.52H231.985C231.705 440.027 231.258 440.453 230.645 440.8C230.031 441.147 229.378 441.32 228.685 441.32ZM236.196 426.68H237.896V441H236.196V426.68ZM240.414 426.68H242.114V441H240.414V426.68ZM247.753 440.36L243.533 430.8H245.373L248.573 438.38H248.613L251.693 430.8H253.533L247.233 445.32H245.473L247.753 440.36ZM264.214 441.32C263.227 441.32 262.341 441.087 261.554 440.62C260.767 440.14 260.154 439.493 259.714 438.68C259.274 437.853 259.054 436.927 259.054 435.9C259.054 434.873 259.274 433.947 259.714 433.12C260.154 432.293 260.767 431.647 261.554 431.18C262.341 430.713 263.227 430.48 264.214 430.48C265.321 430.48 266.247 430.74 266.994 431.26C267.754 431.767 268.294 432.447 268.614 433.3L267.074 433.94C266.821 433.313 266.441 432.84 265.934 432.52C265.441 432.187 264.841 432.02 264.134 432.02C263.534 432.02 262.974 432.187 262.454 432.52C261.934 432.84 261.514 433.293 261.194 433.88C260.887 434.467 260.734 435.14 260.734 435.9C260.734 436.66 260.887 437.333 261.194 437.92C261.514 438.507 261.934 438.967 262.454 439.3C262.974 439.62 263.534 439.78 264.134 439.78C264.854 439.78 265.474 439.613 265.994 439.28C266.514 438.947 266.901 438.473 267.154 437.86L268.674 438.5C268.327 439.34 267.767 440.02 266.994 440.54C266.234 441.06 265.307 441.32 264.214 441.32ZM270.512 426.68H272.212V441H270.512V426.68ZM279.333 441.32C278.333 441.32 277.433 441.08 276.633 440.6C275.833 440.12 275.206 439.467 274.753 438.64C274.313 437.813 274.093 436.9 274.093 435.9C274.093 434.9 274.313 433.987 274.753 433.16C275.206 432.333 275.833 431.68 276.633 431.2C277.433 430.72 278.333 430.48 279.333 430.48C280.333 430.48 281.233 430.72 282.033 431.2C282.833 431.68 283.453 432.333 283.893 433.16C284.346 433.987 284.573 434.9 284.573 435.9C284.573 436.9 284.346 437.813 283.893 438.64C283.453 439.467 282.833 440.12 282.033 440.6C281.233 441.08 280.333 441.32 279.333 441.32ZM279.333 439.78C279.96 439.78 280.54 439.627 281.073 439.32C281.62 439 282.053 438.547 282.373 437.96C282.706 437.373 282.873 436.687 282.873 435.9C282.873 435.113 282.706 434.427 282.373 433.84C282.053 433.253 281.62 432.807 281.073 432.5C280.54 432.18 279.96 432.02 279.333 432.02C278.706 432.02 278.12 432.18 277.573 432.5C277.026 432.807 276.586 433.253 276.253 433.84C275.933 434.427 275.773 435.113 275.773 435.9C275.773 436.687 275.933 437.373 276.253 437.96C276.586 438.547 277.026 439 277.573 439.32C278.12 439.627 278.706 439.78 279.333 439.78ZM290.009 441.32C288.916 441.32 288.003 441.067 287.269 440.56C286.536 440.04 286.016 439.38 285.709 438.58L287.229 437.9C287.483 438.513 287.856 438.987 288.349 439.32C288.856 439.653 289.409 439.82 290.009 439.82C290.649 439.82 291.196 439.693 291.649 439.44C292.103 439.173 292.329 438.8 292.329 438.32C292.329 437.893 292.149 437.553 291.789 437.3C291.429 437.033 290.863 436.807 290.089 436.62L288.849 436.3C288.036 436.1 287.369 435.76 286.849 435.28C286.329 434.8 286.069 434.18 286.069 433.42C286.069 432.833 286.243 432.32 286.589 431.88C286.949 431.427 287.423 431.08 288.009 430.84C288.596 430.6 289.229 430.48 289.909 430.48C290.803 430.48 291.596 430.673 292.289 431.06C292.996 431.447 293.496 431.987 293.789 432.68L292.309 433.36C291.856 432.453 291.049 432 289.889 432C289.329 432 288.836 432.133 288.409 432.4C287.996 432.653 287.789 432.98 287.789 433.38C287.789 433.753 287.936 434.06 288.229 434.3C288.523 434.527 288.963 434.713 289.549 434.86L291.029 435.24C292.029 435.493 292.783 435.873 293.289 436.38C293.796 436.873 294.049 437.48 294.049 438.2C294.049 438.827 293.869 439.38 293.509 439.86C293.149 440.327 292.663 440.687 292.049 440.94C291.436 441.193 290.756 441.32 290.009 441.32ZM300.54 441.32C299.567 441.32 298.694 441.087 297.92 440.62C297.147 440.153 296.54 439.513 296.1 438.7C295.674 437.873 295.46 436.947 295.46 435.92C295.46 434.933 295.66 434.027 296.06 433.2C296.474 432.373 297.054 431.713 297.8 431.22C298.547 430.727 299.414 430.48 300.4 430.48C301.4 430.48 302.267 430.707 303 431.16C303.734 431.6 304.294 432.213 304.68 433C305.08 433.787 305.28 434.687 305.28 435.7C305.28 435.9 305.26 436.073 305.22 436.22H297.16C297.2 436.993 297.387 437.647 297.72 438.18C298.054 438.713 298.474 439.113 298.98 439.38C299.5 439.647 300.04 439.78 300.6 439.78C301.907 439.78 302.914 439.167 303.62 437.94L305.06 438.64C304.62 439.467 304.02 440.12 303.26 440.6C302.514 441.08 301.607 441.32 300.54 441.32ZM303.48 434.82C303.454 434.393 303.334 433.967 303.12 433.54C302.907 433.113 302.567 432.753 302.1 432.46C301.647 432.167 301.074 432.02 300.38 432.02C299.58 432.02 298.9 432.28 298.34 432.8C297.794 433.307 297.434 433.98 297.26 434.82H303.48ZM311.687 441.32C310.781 441.32 309.954 441.087 309.207 440.62C308.474 440.153 307.894 439.513 307.467 438.7C307.041 437.873 306.827 436.94 306.827 435.9C306.827 434.873 307.041 433.947 307.467 433.12C307.894 432.293 308.474 431.647 309.207 431.18C309.954 430.713 310.781 430.48 311.687 430.48C312.474 430.48 313.174 430.66 313.787 431.02C314.401 431.367 314.867 431.8 315.187 432.32H315.267L315.187 430.9V426.68H316.887V441H315.267V439.5H315.187C314.867 440.007 314.401 440.44 313.787 440.8C313.174 441.147 312.474 441.32 311.687 441.32ZM311.887 439.78C312.487 439.78 313.041 439.62 313.547 439.3C314.067 438.98 314.481 438.527 314.787 437.94C315.107 437.353 315.267 436.673 315.267 435.9C315.267 435.127 315.107 434.447 314.787 433.86C314.481 433.273 314.067 432.82 313.547 432.5C313.041 432.18 312.487 432.02 311.887 432.02C311.301 432.02 310.747 432.18 310.227 432.5C309.707 432.82 309.287 433.28 308.967 433.88C308.661 434.467 308.507 435.14 308.507 435.9C308.507 436.66 308.661 437.34 308.967 437.94C309.287 438.527 309.707 438.98 310.227 439.3C310.747 439.62 311.301 439.78 311.887 439.78ZM328.747 441.32C327.747 441.32 326.847 441.08 326.047 440.6C325.247 440.12 324.62 439.467 324.167 438.64C323.727 437.813 323.507 436.9 323.507 435.9C323.507 434.9 323.727 433.987 324.167 433.16C324.62 432.333 325.247 431.68 326.047 431.2C326.847 430.72 327.747 430.48 328.747 430.48C329.747 430.48 330.647 430.72 331.447 431.2C332.247 431.68 332.867 432.333 333.307 433.16C333.76 433.987 333.987 434.9 333.987 435.9C333.987 436.9 333.76 437.813 333.307 438.64C332.867 439.467 332.247 440.12 331.447 440.6C330.647 441.08 329.747 441.32 328.747 441.32ZM328.747 439.78C329.374 439.78 329.954 439.627 330.487 439.32C331.034 439 331.467 438.547 331.787 437.96C332.12 437.373 332.287 436.687 332.287 435.9C332.287 435.113 332.12 434.427 331.787 433.84C331.467 433.253 331.034 432.807 330.487 432.5C329.954 432.18 329.374 432.02 328.747 432.02C328.12 432.02 327.534 432.18 326.987 432.5C326.44 432.807 326 433.253 325.667 433.84C325.347 434.427 325.187 435.113 325.187 435.9C325.187 436.687 325.347 437.373 325.667 437.96C326 438.547 326.44 439 326.987 439.32C327.534 439.627 328.12 439.78 328.747 439.78ZM339.564 441.32C338.337 441.32 337.397 440.96 336.744 440.24C336.104 439.52 335.784 438.513 335.784 437.22V430.8H337.484V436.96C337.484 437.933 337.704 438.647 338.144 439.1C338.584 439.553 339.177 439.78 339.924 439.78C340.497 439.78 341.004 439.627 341.444 439.32C341.897 439.013 342.244 438.613 342.484 438.12C342.737 437.627 342.864 437.107 342.864 436.56V430.8H344.564V441H342.944V439.52H342.864C342.584 440.027 342.137 440.453 341.524 440.8C340.91 441.147 340.257 441.32 339.564 441.32ZM351.092 441.16C350.679 441.16 350.292 441.093 349.932 440.96C349.585 440.827 349.292 440.647 349.052 440.42C348.785 440.167 348.585 439.873 348.452 439.54C348.319 439.207 348.252 438.8 348.252 438.32V432.34H346.472V430.8H348.252V427.92H349.952V430.8H352.432V432.34H349.952V437.9C349.952 438.46 350.059 438.873 350.272 439.14C350.525 439.433 350.892 439.58 351.372 439.58C351.759 439.58 352.132 439.467 352.492 439.24V440.9C352.292 440.993 352.085 441.06 351.872 441.1C351.672 441.14 351.412 441.16 351.092 441.16ZM97.3038 470.36L93.0838 460.8H94.9238L98.1238 468.38H98.1638L101.244 460.8H103.084L96.7838 475.32H95.0238L97.3038 470.36ZM108.806 471.32C107.806 471.32 106.906 471.08 106.106 470.6C105.306 470.12 104.679 469.467 104.226 468.64C103.786 467.813 103.566 466.9 103.566 465.9C103.566 464.9 103.786 463.987 104.226 463.16C104.679 462.333 105.306 461.68 106.106 461.2C106.906 460.72 107.806 460.48 108.806 460.48C109.806 460.48 110.706 460.72 111.506 461.2C112.306 461.68 112.926 462.333 113.366 463.16C113.819 463.987 114.046 464.9 114.046 465.9C114.046 466.9 113.819 467.813 113.366 468.64C112.926 469.467 112.306 470.12 111.506 470.6C110.706 471.08 109.806 471.32 108.806 471.32ZM108.806 469.78C109.432 469.78 110.012 469.627 110.546 469.32C111.092 469 111.526 468.547 111.846 467.96C112.179 467.373 112.346 466.687 112.346 465.9C112.346 465.113 112.179 464.427 111.846 463.84C111.526 463.253 111.092 462.807 110.546 462.5C110.012 462.18 109.432 462.02 108.806 462.02C108.179 462.02 107.592 462.18 107.046 462.5C106.499 462.807 106.059 463.253 105.726 463.84C105.406 464.427 105.246 465.113 105.246 465.9C105.246 466.687 105.406 467.373 105.726 467.96C106.059 468.547 106.499 469 107.046 469.32C107.592 469.627 108.179 469.78 108.806 469.78ZM119.622 471.32C118.395 471.32 117.455 470.96 116.802 470.24C116.162 469.52 115.842 468.513 115.842 467.22V460.8H117.542V466.96C117.542 467.933 117.762 468.647 118.202 469.1C118.642 469.553 119.235 469.78 119.982 469.78C120.555 469.78 121.062 469.627 121.502 469.32C121.955 469.013 122.302 468.613 122.542 468.12C122.795 467.627 122.922 467.107 122.922 466.56V460.8H124.622V471H123.002V469.52H122.922C122.642 470.027 122.195 470.453 121.582 470.8C120.969 471.147 120.315 471.32 119.622 471.32ZM127.133 460.8H128.753V462.44H128.833C129.033 461.88 129.42 461.42 129.993 461.06C130.566 460.687 131.166 460.5 131.793 460.5C132.26 460.5 132.66 460.567 132.993 460.7V462.54C132.566 462.327 132.086 462.22 131.553 462.22C131.06 462.22 130.606 462.36 130.193 462.64C129.78 462.92 129.446 463.3 129.193 463.78C128.953 464.247 128.833 464.753 128.833 465.3V471H127.133V460.8ZM139.661 456.68H142.361V471H139.661V456.68ZM149.959 475.64C148.665 475.64 147.592 475.347 146.739 474.76C145.885 474.187 145.312 473.493 145.019 472.68L147.479 471.68C147.692 472.187 148.019 472.587 148.459 472.88C148.899 473.173 149.399 473.32 149.959 473.32C150.785 473.32 151.439 473.067 151.919 472.56C152.412 472.053 152.659 471.333 152.659 470.4V469.6H152.499C152.179 470.053 151.759 470.4 151.239 470.64C150.719 470.88 150.125 471 149.459 471C148.619 471 147.832 470.787 147.099 470.36C146.379 469.92 145.799 469.307 145.359 468.52C144.919 467.72 144.699 466.793 144.699 465.74C144.699 464.687 144.919 463.767 145.359 462.98C145.799 462.18 146.379 461.567 147.099 461.14C147.832 460.7 148.619 460.48 149.459 460.48C150.125 460.48 150.719 460.6 151.239 460.84C151.759 461.08 152.179 461.427 152.499 461.88H152.659V460.8H155.179V470.3C155.179 471.393 154.965 472.34 154.539 473.14C154.112 473.94 153.505 474.553 152.719 474.98C151.932 475.42 151.012 475.64 149.959 475.64ZM149.999 468.62C150.732 468.62 151.359 468.367 151.879 467.86C152.399 467.34 152.659 466.633 152.659 465.74C152.659 464.82 152.399 464.113 151.879 463.62C151.372 463.113 150.745 462.86 149.999 462.86C149.252 462.86 148.619 463.113 148.099 463.62C147.579 464.127 147.319 464.833 147.319 465.74C147.319 466.647 147.579 467.353 148.099 467.86C148.619 468.367 149.252 468.62 149.999 468.62ZM157.739 460.8H160.199V462.08H160.359C160.666 461.587 161.099 461.2 161.659 460.92C162.219 460.627 162.826 460.48 163.479 460.48C164.706 460.48 165.639 460.853 166.279 461.6C166.919 462.347 167.239 463.367 167.239 464.66V471H164.619V464.98C164.619 464.327 164.452 463.82 164.119 463.46C163.786 463.1 163.319 462.92 162.719 462.92C162.012 462.92 161.439 463.193 160.999 463.74C160.572 464.287 160.359 464.973 160.359 465.8V471H157.739V460.8ZM172.734 471.32C171.654 471.32 170.767 471.007 170.074 470.38C169.381 469.74 169.034 468.907 169.034 467.88C169.034 467.2 169.214 466.6 169.574 466.08C169.934 465.56 170.427 465.16 171.054 464.88C171.681 464.6 172.374 464.46 173.134 464.46C174.187 464.46 175.087 464.613 175.834 464.92V464.48C175.834 463.92 175.621 463.467 175.194 463.12C174.781 462.773 174.221 462.6 173.514 462.6C173.034 462.6 172.567 462.713 172.114 462.94C171.674 463.153 171.307 463.44 171.014 463.8L169.334 462.48C169.827 461.84 170.447 461.347 171.194 461C171.941 460.653 172.754 460.48 173.634 460.48C175.194 460.48 176.381 460.84 177.194 461.56C178.007 462.28 178.414 463.333 178.414 464.72V471H175.834V469.96H175.674C175.367 470.36 174.961 470.687 174.454 470.94C173.961 471.193 173.387 471.32 172.734 471.32ZM173.354 469.28C174.114 469.28 174.714 469.04 175.154 468.56C175.607 468.067 175.834 467.493 175.834 466.84C175.154 466.52 174.441 466.36 173.694 466.36C172.334 466.36 171.654 466.867 171.654 467.88C171.654 468.293 171.801 468.633 172.094 468.9C172.387 469.153 172.807 469.28 173.354 469.28ZM185.07 471.16C184.563 471.16 184.096 471.087 183.67 470.94C183.243 470.78 182.896 470.567 182.63 470.3C182.003 469.7 181.69 468.847 181.69 467.74V463.04H179.91V460.8H181.69V457.92H184.31V460.8H186.81V463.04H184.31V467.26C184.31 467.78 184.423 468.153 184.65 468.38C184.836 468.593 185.156 468.7 185.61 468.7C185.863 468.7 186.07 468.667 186.23 468.6C186.403 468.533 186.623 468.42 186.89 468.26V470.82C186.316 471.047 185.71 471.16 185.07 471.16ZM190.567 459.68C190.1 459.68 189.7 459.513 189.367 459.18C189.033 458.847 188.867 458.447 188.867 457.98C188.867 457.513 189.033 457.12 189.367 456.8C189.7 456.467 190.1 456.3 190.567 456.3C191.033 456.3 191.427 456.467 191.747 456.8C192.08 457.12 192.247 457.513 192.247 457.98C192.247 458.447 192.08 458.847 191.747 459.18C191.427 459.513 191.033 459.68 190.567 459.68ZM189.247 460.8H191.867V471H189.247V460.8ZM198.294 471.32C197.067 471.32 196.134 470.94 195.494 470.18C194.854 469.42 194.534 468.36 194.534 467V460.8H197.154V466.68C197.154 467.373 197.321 467.92 197.654 468.32C197.987 468.707 198.427 468.9 198.974 468.9C199.721 468.9 200.314 468.627 200.754 468.08C201.194 467.533 201.414 466.84 201.414 466V460.8H204.034V471H201.574V469.72H201.414C201.107 470.213 200.674 470.607 200.114 470.9C199.567 471.18 198.961 471.32 198.294 471.32ZM210.369 471.32C209.129 471.32 208.122 471.067 207.349 470.56C206.589 470.053 206.056 469.393 205.749 468.58L208.089 467.56C208.302 468.04 208.602 468.407 208.989 468.66C209.389 468.9 209.849 469.02 210.369 469.02C210.849 469.02 211.249 468.947 211.569 468.8C211.889 468.64 212.049 468.387 212.049 468.04C212.049 467.707 211.902 467.46 211.609 467.3C211.316 467.127 210.876 466.973 210.289 466.84L209.089 466.58C208.262 466.38 207.576 466.02 207.029 465.5C206.482 464.967 206.209 464.307 206.209 463.52C206.209 462.933 206.382 462.407 206.729 461.94C207.089 461.473 207.569 461.113 208.169 460.86C208.782 460.607 209.456 460.48 210.189 460.48C212.296 460.48 213.702 461.22 214.409 462.7L212.169 463.68C211.769 462.96 211.129 462.6 210.249 462.6C209.796 462.6 209.436 462.687 209.169 462.86C208.902 463.02 208.769 463.227 208.769 463.48C208.769 463.96 209.222 464.32 210.129 464.56L211.629 464.92C212.642 465.173 213.402 465.56 213.909 466.08C214.429 466.6 214.689 467.24 214.689 468C214.689 468.653 214.496 469.233 214.109 469.74C213.736 470.233 213.216 470.62 212.549 470.9C211.896 471.18 211.169 471.32 210.369 471.32ZM221.634 456.68H227.234C228.034 456.68 228.767 456.847 229.434 457.18C230.114 457.513 230.647 457.967 231.034 458.54C231.421 459.113 231.614 459.74 231.614 460.42C231.614 461.14 231.434 461.767 231.074 462.3C230.727 462.82 230.267 463.22 229.694 463.5V463.66C230.441 463.927 231.034 464.353 231.474 464.94C231.914 465.513 232.134 466.207 232.134 467.02C232.134 467.807 231.921 468.507 231.494 469.12C231.081 469.72 230.514 470.187 229.794 470.52C229.087 470.84 228.301 471 227.434 471H221.634V456.68ZM227.034 462.52C227.621 462.52 228.087 462.36 228.434 462.04C228.794 461.707 228.974 461.293 228.974 460.8C228.974 460.32 228.801 459.92 228.454 459.6C228.121 459.267 227.674 459.1 227.114 459.1H224.334V462.52H227.034ZM227.334 468.54C227.987 468.54 228.494 468.373 228.854 468.04C229.227 467.693 229.414 467.247 229.414 466.7C229.414 466.153 229.227 465.707 228.854 465.36C228.481 465.013 227.947 464.84 227.254 464.84H224.334V468.54H227.334ZM239.103 471.32C238.05 471.32 237.11 471.087 236.283 470.62C235.457 470.14 234.81 469.493 234.343 468.68C233.89 467.853 233.663 466.927 233.663 465.9C233.663 464.887 233.89 463.967 234.343 463.14C234.81 462.313 235.457 461.667 236.283 461.2C237.11 460.72 238.05 460.48 239.103 460.48C240.143 460.48 241.077 460.72 241.903 461.2C242.73 461.667 243.37 462.313 243.823 463.14C244.29 463.967 244.523 464.887 244.523 465.9C244.523 466.927 244.29 467.853 243.823 468.68C243.37 469.493 242.73 470.14 241.903 470.62C241.077 471.087 240.143 471.32 239.103 471.32ZM239.103 468.9C239.61 468.9 240.077 468.78 240.503 468.54C240.93 468.3 241.27 467.953 241.523 467.5C241.777 467.047 241.903 466.513 241.903 465.9C241.903 465.3 241.777 464.773 241.523 464.32C241.27 463.867 240.93 463.52 240.503 463.28C240.077 463.04 239.61 462.92 239.103 462.92C238.597 462.92 238.13 463.04 237.703 463.28C237.277 463.52 236.93 463.867 236.663 464.32C236.41 464.773 236.283 465.3 236.283 465.9C236.283 466.5 236.41 467.033 236.663 467.5C236.93 467.953 237.277 468.3 237.703 468.54C238.13 468.78 238.597 468.9 239.103 468.9ZM251.408 471.32C250.355 471.32 249.415 471.087 248.588 470.62C247.761 470.14 247.115 469.493 246.648 468.68C246.195 467.853 245.968 466.927 245.968 465.9C245.968 464.887 246.195 463.967 246.648 463.14C247.115 462.313 247.761 461.667 248.588 461.2C249.415 460.72 250.355 460.48 251.408 460.48C252.448 460.48 253.381 460.72 254.208 461.2C255.035 461.667 255.675 462.313 256.128 463.14C256.595 463.967 256.828 464.887 256.828 465.9C256.828 466.927 256.595 467.853 256.128 468.68C255.675 469.493 255.035 470.14 254.208 470.62C253.381 471.087 252.448 471.32 251.408 471.32ZM251.408 468.9C251.915 468.9 252.381 468.78 252.808 468.54C253.235 468.3 253.575 467.953 253.828 467.5C254.081 467.047 254.208 466.513 254.208 465.9C254.208 465.3 254.081 464.773 253.828 464.32C253.575 463.867 253.235 463.52 252.808 463.28C252.381 463.04 251.915 462.92 251.408 462.92C250.901 462.92 250.435 463.04 250.008 463.28C249.581 463.52 249.235 463.867 248.968 464.32C248.715 464.773 248.588 465.3 248.588 465.9C248.588 466.5 248.715 467.033 248.968 467.5C249.235 467.953 249.581 468.3 250.008 468.54C250.435 468.78 250.901 468.9 251.408 468.9ZM258.735 456.68H261.355V464.48H261.495L265.155 460.8H268.375V460.96L264.515 464.74L268.555 470.84V471H265.455L262.675 466.54L261.355 467.84V471H258.735V456.68ZM274.954 456.68H284.034V459.24H277.654V462.72H283.394V465.28H277.654V471H274.954V456.68ZM288.789 471.32C287.709 471.32 286.822 471.007 286.129 470.38C285.435 469.74 285.089 468.907 285.089 467.88C285.089 467.2 285.269 466.6 285.629 466.08C285.989 465.56 286.482 465.16 287.109 464.88C287.735 464.6 288.429 464.46 289.189 464.46C290.242 464.46 291.142 464.613 291.889 464.92V464.48C291.889 463.92 291.675 463.467 291.249 463.12C290.835 462.773 290.275 462.6 289.569 462.6C289.089 462.6 288.622 462.713 288.169 462.94C287.729 463.153 287.362 463.44 287.069 463.8L285.389 462.48C285.882 461.84 286.502 461.347 287.249 461C287.995 460.653 288.809 460.48 289.689 460.48C291.249 460.48 292.435 460.84 293.249 461.56C294.062 462.28 294.469 463.333 294.469 464.72V471H291.889V469.96H291.729C291.422 470.36 291.015 470.687 290.509 470.94C290.015 471.193 289.442 471.32 288.789 471.32ZM289.409 469.28C290.169 469.28 290.769 469.04 291.209 468.56C291.662 468.067 291.889 467.493 291.889 466.84C291.209 466.52 290.495 466.36 289.749 466.36C288.389 466.36 287.709 466.867 287.709 467.88C287.709 468.293 287.855 468.633 288.149 468.9C288.442 469.153 288.862 469.28 289.409 469.28ZM298.36 459.68C297.893 459.68 297.493 459.513 297.16 459.18C296.826 458.847 296.66 458.447 296.66 457.98C296.66 457.513 296.826 457.12 297.16 456.8C297.493 456.467 297.893 456.3 298.36 456.3C298.826 456.3 299.22 456.467 299.54 456.8C299.873 457.12 300.04 457.513 300.04 457.98C300.04 458.447 299.873 458.847 299.54 459.18C299.22 459.513 298.826 459.68 298.36 459.68ZM297.04 460.8H299.66V471H297.04V460.8ZM302.407 460.8H304.867V462.16H305.027C305.28 461.68 305.674 461.287 306.207 460.98C306.74 460.66 307.327 460.5 307.967 460.5C308.434 460.5 308.86 460.573 309.247 460.72V463.34C308.887 463.207 308.58 463.113 308.327 463.06C308.087 462.993 307.827 462.96 307.547 462.96C306.774 462.96 306.16 463.24 305.707 463.8C305.254 464.36 305.027 465.067 305.027 465.92V471H302.407V460.8ZM312.042 471.12C311.682 471.12 311.375 471 311.122 470.76C310.882 470.507 310.762 470.2 310.762 469.84C310.762 469.493 310.882 469.2 311.122 468.96C311.375 468.707 311.682 468.58 312.042 468.58C312.389 468.58 312.682 468.707 312.922 468.96C313.175 469.2 313.302 469.493 313.302 469.84C313.302 470.2 313.175 470.507 312.922 470.76C312.682 471 312.389 471.12 312.042 471.12ZM78.6357 503.3H74.6157V501.68H84.3357V503.3H80.3357V516H78.6357V503.3ZM86.137 501.68H87.837V505.9L87.757 507.3H87.837C88.117 506.78 88.557 506.347 89.157 506C89.7703 505.653 90.437 505.48 91.157 505.48C92.397 505.48 93.3436 505.847 93.997 506.58C94.6503 507.3 94.977 508.26 94.977 509.46V516H93.277V509.72C93.277 508.8 93.0436 508.12 92.577 507.68C92.1103 507.24 91.5036 507.02 90.757 507.02C90.2236 507.02 89.7303 507.18 89.277 507.5C88.837 507.82 88.4836 508.233 88.217 508.74C87.9636 509.247 87.837 509.773 87.837 510.32V516H86.137V501.68ZM100.588 516.32C99.8417 516.32 99.175 516.173 98.5884 515.88C98.0017 515.587 97.5484 515.187 97.2284 514.68C96.9084 514.16 96.7484 513.573 96.7484 512.92C96.7484 511.84 97.155 511 97.9684 510.4C98.7817 509.787 99.8084 509.48 101.048 509.48C101.662 509.48 102.228 509.547 102.748 509.68C103.282 509.813 103.688 509.967 103.968 510.14V509.52C103.968 508.76 103.702 508.153 103.168 507.7C102.635 507.233 101.962 507 101.148 507C100.575 507 100.048 507.127 99.5684 507.38C99.0884 507.62 98.7084 507.96 98.4284 508.4L97.1484 507.44C97.5484 506.827 98.095 506.347 98.7884 506C99.495 505.653 100.275 505.48 101.128 505.48C102.515 505.48 103.602 505.847 104.388 506.58C105.188 507.3 105.588 508.287 105.588 509.54V516H103.968V514.54H103.888C103.595 515.033 103.155 515.453 102.568 515.8C101.982 516.147 101.322 516.32 100.588 516.32ZM100.748 514.82C101.322 514.82 101.855 514.673 102.348 514.38C102.842 514.087 103.235 513.693 103.528 513.2C103.822 512.707 103.968 512.167 103.968 511.58C103.648 511.367 103.255 511.193 102.788 511.06C102.322 510.927 101.828 510.86 101.308 510.86C100.375 510.86 99.6684 511.053 99.1884 511.44C98.7217 511.827 98.4884 512.327 98.4884 512.94C98.4884 513.5 98.7017 513.953 99.1284 514.3C99.555 514.647 100.095 514.82 100.748 514.82ZM107.953 505.8H109.573V507.3H109.653C109.933 506.793 110.38 506.367 110.993 506.02C111.607 505.66 112.26 505.48 112.953 505.48C114.18 505.48 115.113 505.84 115.753 506.56C116.407 507.267 116.733 508.233 116.733 509.46V516H115.033V509.72C115.033 508.773 114.807 508.087 114.353 507.66C113.9 507.233 113.28 507.02 112.493 507.02C111.947 507.02 111.453 507.173 111.013 507.48C110.587 507.787 110.253 508.193 110.013 508.7C109.773 509.193 109.653 509.713 109.653 510.26V516H107.953V505.8ZM119.164 501.68H120.864V510.68L125.664 505.8H127.824V505.88L123.824 509.92L127.924 515.92V516H125.904L122.624 511.1L120.864 512.86V516H119.164V501.68ZM137.03 515.36L132.81 505.8H134.65L137.85 513.38H137.89L140.97 505.8H142.81L136.51 520.32H134.75L137.03 515.36ZM148.532 516.32C147.532 516.32 146.632 516.08 145.832 515.6C145.032 515.12 144.406 514.467 143.952 513.64C143.512 512.813 143.292 511.9 143.292 510.9C143.292 509.9 143.512 508.987 143.952 508.16C144.406 507.333 145.032 506.68 145.832 506.2C146.632 505.72 147.532 505.48 148.532 505.48C149.532 505.48 150.432 505.72 151.232 506.2C152.032 506.68 152.652 507.333 153.092 508.16C153.546 508.987 153.772 509.9 153.772 510.9C153.772 511.9 153.546 512.813 153.092 513.64C152.652 514.467 152.032 515.12 151.232 515.6C150.432 516.08 149.532 516.32 148.532 516.32ZM148.532 514.78C149.159 514.78 149.739 514.627 150.272 514.32C150.819 514 151.252 513.547 151.572 512.96C151.906 512.373 152.072 511.687 152.072 510.9C152.072 510.113 151.906 509.427 151.572 508.84C151.252 508.253 150.819 507.807 150.272 507.5C149.739 507.18 149.159 507.02 148.532 507.02C147.906 507.02 147.319 507.18 146.772 507.5C146.226 507.807 145.786 508.253 145.452 508.84C145.132 509.427 144.972 510.113 144.972 510.9C144.972 511.687 145.132 512.373 145.452 512.96C145.786 513.547 146.226 514 146.772 514.32C147.319 514.627 147.906 514.78 148.532 514.78ZM159.349 516.32C158.122 516.32 157.182 515.96 156.529 515.24C155.889 514.52 155.569 513.513 155.569 512.22V505.8H157.269V511.96C157.269 512.933 157.489 513.647 157.929 514.1C158.369 514.553 158.962 514.78 159.709 514.78C160.282 514.78 160.789 514.627 161.229 514.32C161.682 514.013 162.029 513.613 162.269 513.12C162.522 512.627 162.649 512.107 162.649 511.56V505.8H164.349V516H162.729V514.52H162.649C162.369 515.027 161.922 515.453 161.309 515.8C160.695 516.147 160.042 516.32 159.349 516.32ZM172.297 507.34H170.417V505.8H172.297V504.7C172.297 504.06 172.444 503.5 172.737 503.02C173.031 502.54 173.424 502.173 173.917 501.92C174.411 501.653 174.957 501.52 175.557 501.52C176.131 501.52 176.631 501.6 177.057 501.76V503.42C176.817 503.327 176.591 503.253 176.377 503.2C176.164 503.133 175.911 503.1 175.617 503.1C175.177 503.1 174.797 503.26 174.477 503.58C174.157 503.887 173.997 504.32 173.997 504.88V505.8H176.617V507.34H173.997V516H172.297V507.34ZM182.771 516.32C181.771 516.32 180.871 516.08 180.071 515.6C179.271 515.12 178.644 514.467 178.191 513.64C177.751 512.813 177.531 511.9 177.531 510.9C177.531 509.9 177.751 508.987 178.191 508.16C178.644 507.333 179.271 506.68 180.071 506.2C180.871 505.72 181.771 505.48 182.771 505.48C183.771 505.48 184.671 505.72 185.471 506.2C186.271 506.68 186.891 507.333 187.331 508.16C187.784 508.987 188.011 509.9 188.011 510.9C188.011 511.9 187.784 512.813 187.331 513.64C186.891 514.467 186.271 515.12 185.471 515.6C184.671 516.08 183.771 516.32 182.771 516.32ZM182.771 514.78C183.397 514.78 183.977 514.627 184.511 514.32C185.057 514 185.491 513.547 185.811 512.96C186.144 512.373 186.311 511.687 186.311 510.9C186.311 510.113 186.144 509.427 185.811 508.84C185.491 508.253 185.057 507.807 184.511 507.5C183.977 507.18 183.397 507.02 182.771 507.02C182.144 507.02 181.557 507.18 181.011 507.5C180.464 507.807 180.024 508.253 179.691 508.84C179.371 509.427 179.211 510.113 179.211 510.9C179.211 511.687 179.371 512.373 179.691 512.96C180.024 513.547 180.464 514 181.011 514.32C181.557 514.627 182.144 514.78 182.771 514.78ZM189.789 505.8H191.409V507.44H191.489C191.689 506.88 192.076 506.42 192.649 506.06C193.223 505.687 193.823 505.5 194.449 505.5C194.916 505.5 195.316 505.567 195.649 505.7V507.54C195.223 507.327 194.743 507.22 194.209 507.22C193.716 507.22 193.263 507.36 192.849 507.64C192.436 507.92 192.103 508.3 191.849 508.78C191.609 509.247 191.489 509.753 191.489 510.3V516H189.789V505.8ZM201.938 501.68H203.638V505.9L203.558 507.3H203.638C203.918 506.78 204.358 506.347 204.958 506C205.571 505.653 206.238 505.48 206.958 505.48C208.198 505.48 209.144 505.847 209.798 506.58C210.451 507.3 210.778 508.26 210.778 509.46V516H209.078V509.72C209.078 508.8 208.844 508.12 208.378 507.68C207.911 507.24 207.304 507.02 206.558 507.02C206.024 507.02 205.531 507.18 205.078 507.5C204.638 507.82 204.284 508.233 204.018 508.74C203.764 509.247 203.638 509.773 203.638 510.32V516H201.938V501.68ZM217.927 516.32C216.927 516.32 216.027 516.08 215.227 515.6C214.427 515.12 213.8 514.467 213.347 513.64C212.907 512.813 212.687 511.9 212.687 510.9C212.687 509.9 212.907 508.987 213.347 508.16C213.8 507.333 214.427 506.68 215.227 506.2C216.027 505.72 216.927 505.48 217.927 505.48C218.927 505.48 219.827 505.72 220.627 506.2C221.427 506.68 222.047 507.333 222.487 508.16C222.94 508.987 223.167 509.9 223.167 510.9C223.167 511.9 222.94 512.813 222.487 513.64C222.047 514.467 221.427 515.12 220.627 515.6C219.827 516.08 218.927 516.32 217.927 516.32ZM217.927 514.78C218.553 514.78 219.133 514.627 219.667 514.32C220.213 514 220.647 513.547 220.967 512.96C221.3 512.373 221.467 511.687 221.467 510.9C221.467 510.113 221.3 509.427 220.967 508.84C220.647 508.253 220.213 507.807 219.667 507.5C219.133 507.18 218.553 507.02 217.927 507.02C217.3 507.02 216.713 507.18 216.167 507.5C215.62 507.807 215.18 508.253 214.847 508.84C214.527 509.427 214.367 510.113 214.367 510.9C214.367 511.687 214.527 512.373 214.847 512.96C215.18 513.547 215.62 514 216.167 514.32C216.713 514.627 217.3 514.78 217.927 514.78ZM228.603 516.32C227.51 516.32 226.597 516.067 225.863 515.56C225.13 515.04 224.61 514.38 224.303 513.58L225.823 512.9C226.077 513.513 226.45 513.987 226.943 514.32C227.45 514.653 228.003 514.82 228.603 514.82C229.243 514.82 229.79 514.693 230.243 514.44C230.697 514.173 230.923 513.8 230.923 513.32C230.923 512.893 230.743 512.553 230.383 512.3C230.023 512.033 229.457 511.807 228.683 511.62L227.443 511.3C226.63 511.1 225.963 510.76 225.443 510.28C224.923 509.8 224.663 509.18 224.663 508.42C224.663 507.833 224.837 507.32 225.183 506.88C225.543 506.427 226.017 506.08 226.603 505.84C227.19 505.6 227.823 505.48 228.503 505.48C229.397 505.48 230.19 505.673 230.883 506.06C231.59 506.447 232.09 506.987 232.383 507.68L230.903 508.36C230.45 507.453 229.643 507 228.483 507C227.923 507 227.43 507.133 227.003 507.4C226.59 507.653 226.383 507.98 226.383 508.38C226.383 508.753 226.53 509.06 226.823 509.3C227.117 509.527 227.557 509.713 228.143 509.86L229.623 510.24C230.623 510.493 231.377 510.873 231.883 511.38C232.39 511.873 232.643 512.48 232.643 513.2C232.643 513.827 232.463 514.38 232.103 514.86C231.743 515.327 231.257 515.687 230.643 515.94C230.03 516.193 229.35 516.32 228.603 516.32ZM238.319 516.16C237.905 516.16 237.519 516.093 237.159 515.96C236.812 515.827 236.519 515.647 236.279 515.42C236.012 515.167 235.812 514.873 235.679 514.54C235.545 514.207 235.479 513.8 235.479 513.32V507.34H233.699V505.8H235.479V502.92H237.179V505.8H239.659V507.34H237.179V512.9C237.179 513.46 237.285 513.873 237.499 514.14C237.752 514.433 238.119 514.58 238.599 514.58C238.985 514.58 239.359 514.467 239.719 514.24V515.9C239.519 515.993 239.312 516.06 239.099 516.1C238.899 516.14 238.639 516.16 238.319 516.16ZM242.821 503.92C242.487 503.92 242.201 503.8 241.961 503.56C241.721 503.32 241.601 503.033 241.601 502.7C241.601 502.367 241.721 502.087 241.961 501.86C242.201 501.62 242.487 501.5 242.821 501.5C243.154 501.5 243.441 501.62 243.681 501.86C243.921 502.087 244.041 502.367 244.041 502.7C244.041 503.033 243.921 503.32 243.681 503.56C243.454 503.8 243.167 503.92 242.821 503.92ZM241.981 505.8H243.661V516H241.981V505.8ZM246.332 505.8H247.952V507.3H248.032C248.312 506.793 248.759 506.367 249.372 506.02C249.986 505.66 250.639 505.48 251.332 505.48C252.559 505.48 253.492 505.84 254.132 506.56C254.786 507.267 255.112 508.233 255.112 509.46V516H253.412V509.72C253.412 508.773 253.186 508.087 252.732 507.66C252.279 507.233 251.659 507.02 250.872 507.02C250.326 507.02 249.832 507.173 249.392 507.48C248.966 507.787 248.632 508.193 248.392 508.7C248.152 509.193 248.032 509.713 248.032 510.26V516H246.332V505.8ZM261.926 520.64C260.726 520.64 259.732 520.36 258.946 519.8C258.172 519.24 257.652 518.567 257.386 517.78L258.926 517.12C259.152 517.707 259.526 518.18 260.046 518.54C260.579 518.913 261.206 519.1 261.926 519.1C262.979 519.1 263.792 518.793 264.366 518.18C264.952 517.567 265.246 516.7 265.246 515.58V514.44H265.166C264.832 514.96 264.359 515.387 263.746 515.72C263.146 516.04 262.459 516.2 261.686 516.2C260.806 516.2 259.999 515.973 259.266 515.52C258.546 515.067 257.972 514.433 257.546 513.62C257.119 512.807 256.906 511.88 256.906 510.84C256.906 509.813 257.119 508.893 257.546 508.08C257.972 507.253 258.546 506.613 259.266 506.16C259.999 505.707 260.806 505.48 261.686 505.48C262.459 505.48 263.146 505.647 263.746 505.98C264.359 506.3 264.832 506.727 265.166 507.26H265.246V505.8H266.866V515.6C266.866 517.24 266.412 518.487 265.506 519.34C264.599 520.207 263.406 520.64 261.926 520.64ZM261.926 514.66C262.539 514.66 263.092 514.507 263.586 514.2C264.092 513.893 264.492 513.453 264.786 512.88C265.092 512.307 265.246 511.627 265.246 510.84C265.246 510.04 265.092 509.353 264.786 508.78C264.492 508.207 264.092 507.773 263.586 507.48C263.092 507.173 262.539 507.02 261.926 507.02C261.312 507.02 260.752 507.173 260.246 507.48C259.739 507.787 259.332 508.227 259.026 508.8C258.732 509.373 258.586 510.053 258.586 510.84C258.586 511.627 258.732 512.313 259.026 512.9C259.332 513.473 259.739 513.913 260.246 514.22C260.752 514.513 261.312 514.66 261.926 514.66ZM277.288 516.32C276.541 516.32 275.874 516.173 275.288 515.88C274.701 515.587 274.248 515.187 273.928 514.68C273.608 514.16 273.448 513.573 273.448 512.92C273.448 511.84 273.854 511 274.668 510.4C275.481 509.787 276.508 509.48 277.748 509.48C278.361 509.48 278.928 509.547 279.448 509.68C279.981 509.813 280.388 509.967 280.668 510.14V509.52C280.668 508.76 280.401 508.153 279.868 507.7C279.334 507.233 278.661 507 277.848 507C277.274 507 276.748 507.127 276.268 507.38C275.788 507.62 275.408 507.96 275.128 508.4L273.848 507.44C274.248 506.827 274.794 506.347 275.488 506C276.194 505.653 276.974 505.48 277.828 505.48C279.214 505.48 280.301 505.847 281.088 506.58C281.888 507.3 282.288 508.287 282.288 509.54V516H280.668V514.54H280.588C280.294 515.033 279.854 515.453 279.268 515.8C278.681 516.147 278.021 516.32 277.288 516.32ZM277.448 514.82C278.021 514.82 278.554 514.673 279.048 514.38C279.541 514.087 279.934 513.693 280.228 513.2C280.521 512.707 280.668 512.167 280.668 511.58C280.348 511.367 279.954 511.193 279.488 511.06C279.021 510.927 278.528 510.86 278.008 510.86C277.074 510.86 276.368 511.053 275.888 511.44C275.421 511.827 275.188 512.327 275.188 512.94C275.188 513.5 275.401 513.953 275.828 514.3C276.254 514.647 276.794 514.82 277.448 514.82ZM284.653 505.8H286.273V507.3H286.353C286.633 506.793 287.079 506.367 287.693 506.02C288.306 505.66 288.959 505.48 289.653 505.48C290.879 505.48 291.813 505.84 292.453 506.56C293.106 507.267 293.433 508.233 293.433 509.46V516H291.733V509.72C291.733 508.773 291.506 508.087 291.053 507.66C290.599 507.233 289.979 507.02 289.193 507.02C288.646 507.02 288.153 507.173 287.713 507.48C287.286 507.787 286.953 508.193 286.713 508.7C286.473 509.193 286.353 509.713 286.353 510.26V516H284.653V505.8ZM300.184 516.32C299.277 516.32 298.45 516.087 297.704 515.62C296.97 515.153 296.39 514.513 295.964 513.7C295.537 512.873 295.324 511.94 295.324 510.9C295.324 509.873 295.537 508.947 295.964 508.12C296.39 507.293 296.97 506.647 297.704 506.18C298.45 505.713 299.277 505.48 300.184 505.48C300.97 505.48 301.67 505.66 302.284 506.02C302.897 506.367 303.364 506.8 303.684 507.32H303.764L303.684 505.9V501.68H305.384V516H303.764V514.5H303.684C303.364 515.007 302.897 515.44 302.284 515.8C301.67 516.147 300.97 516.32 300.184 516.32ZM300.384 514.78C300.984 514.78 301.537 514.62 302.044 514.3C302.564 513.98 302.977 513.527 303.284 512.94C303.604 512.353 303.764 511.673 303.764 510.9C303.764 510.127 303.604 509.447 303.284 508.86C302.977 508.273 302.564 507.82 302.044 507.5C301.537 507.18 300.984 507.02 300.384 507.02C299.797 507.02 299.244 507.18 298.724 507.5C298.204 507.82 297.784 508.28 297.464 508.88C297.157 509.467 297.004 510.14 297.004 510.9C297.004 511.66 297.157 512.34 297.464 512.94C297.784 513.527 298.204 513.98 298.724 514.3C299.244 514.62 299.797 514.78 300.384 514.78ZM311.423 505.8H313.163L315.603 513.86H315.623L318.183 505.8H319.943L322.523 513.84H322.543L324.963 505.8H326.683L323.383 516H321.663L319.023 507.86L316.403 516H314.703L311.423 505.8ZM332.435 516.32C331.461 516.32 330.588 516.087 329.815 515.62C329.041 515.153 328.435 514.513 327.995 513.7C327.568 512.873 327.355 511.947 327.355 510.92C327.355 509.933 327.555 509.027 327.955 508.2C328.368 507.373 328.948 506.713 329.695 506.22C330.441 505.727 331.308 505.48 332.295 505.48C333.295 505.48 334.161 505.707 334.895 506.16C335.628 506.6 336.188 507.213 336.575 508C336.975 508.787 337.175 509.687 337.175 510.7C337.175 510.9 337.155 511.073 337.115 511.22H329.055C329.095 511.993 329.281 512.647 329.615 513.18C329.948 513.713 330.368 514.113 330.875 514.38C331.395 514.647 331.935 514.78 332.495 514.78C333.801 514.78 334.808 514.167 335.515 512.94L336.955 513.64C336.515 514.467 335.915 515.12 335.155 515.6C334.408 516.08 333.501 516.32 332.435 516.32ZM335.375 509.82C335.348 509.393 335.228 508.967 335.015 508.54C334.801 508.113 334.461 507.753 333.995 507.46C333.541 507.167 332.968 507.02 332.275 507.02C331.475 507.02 330.795 507.28 330.235 507.8C329.688 508.307 329.328 508.98 329.155 509.82H335.375ZM81.5764 531.68H83.2764V535.9L83.1964 537.3H83.2764C83.5564 536.78 83.9964 536.347 84.5964 536C85.2097 535.653 85.8764 535.48 86.5964 535.48C87.8364 535.48 88.7831 535.847 89.4364 536.58C90.0897 537.3 90.4164 538.26 90.4164 539.46V546H88.7164V539.72C88.7164 538.8 88.4831 538.12 88.0164 537.68C87.5497 537.24 86.9431 537.02 86.1964 537.02C85.6631 537.02 85.1697 537.18 84.7164 537.5C84.2764 537.82 83.9231 538.233 83.6564 538.74C83.4031 539.247 83.2764 539.773 83.2764 540.32V546H81.5764V531.68ZM97.5655 546.32C96.5655 546.32 95.6655 546.08 94.8655 545.6C94.0655 545.12 93.4388 544.467 92.9855 543.64C92.5455 542.813 92.3255 541.9 92.3255 540.9C92.3255 539.9 92.5455 538.987 92.9855 538.16C93.4388 537.333 94.0655 536.68 94.8655 536.2C95.6655 535.72 96.5655 535.48 97.5655 535.48C98.5655 535.48 99.4655 535.72 100.265 536.2C101.065 536.68 101.685 537.333 102.125 538.16C102.579 538.987 102.805 539.9 102.805 540.9C102.805 541.9 102.579 542.813 102.125 543.64C101.685 544.467 101.065 545.12 100.265 545.6C99.4655 546.08 98.5655 546.32 97.5655 546.32ZM97.5655 544.78C98.1921 544.78 98.7721 544.627 99.3055 544.32C99.8521 544 100.285 543.547 100.605 542.96C100.939 542.373 101.105 541.687 101.105 540.9C101.105 540.113 100.939 539.427 100.605 538.84C100.285 538.253 99.8521 537.807 99.3055 537.5C98.7721 537.18 98.1921 537.02 97.5655 537.02C96.9388 537.02 96.3521 537.18 95.8055 537.5C95.2588 537.807 94.8188 538.253 94.4855 538.84C94.1655 539.427 94.0055 540.113 94.0055 540.9C94.0055 541.687 94.1655 542.373 94.4855 542.96C94.8188 543.547 95.2588 544 95.8055 544.32C96.3521 544.627 96.9388 544.78 97.5655 544.78ZM104.602 535.8H106.222V537.32H106.302C106.609 536.8 107.069 536.367 107.682 536.02C108.309 535.66 109.009 535.48 109.782 535.48C110.689 535.48 111.515 535.713 112.262 536.18C113.009 536.647 113.595 537.293 114.022 538.12C114.449 538.947 114.662 539.873 114.662 540.9C114.662 541.94 114.449 542.873 114.022 543.7C113.595 544.513 113.009 545.153 112.262 545.62C111.515 546.087 110.689 546.32 109.782 546.32C109.009 546.32 108.309 546.147 107.682 545.8C107.069 545.44 106.609 545.007 106.302 544.5H106.222L106.302 545.9V550.32H104.602V535.8ZM109.582 544.78C110.169 544.78 110.722 544.62 111.242 544.3C111.762 543.98 112.175 543.527 112.482 542.94C112.802 542.34 112.962 541.66 112.962 540.9C112.962 540.14 112.802 539.467 112.482 538.88C112.175 538.28 111.762 537.82 111.242 537.5C110.722 537.18 110.169 537.02 109.582 537.02C108.995 537.02 108.442 537.18 107.922 537.5C107.402 537.82 106.989 538.273 106.682 538.86C106.375 539.447 106.222 540.127 106.222 540.9C106.222 541.673 106.375 542.353 106.682 542.94C106.989 543.527 107.402 543.98 107.922 544.3C108.442 544.62 108.995 544.78 109.582 544.78ZM121.175 546.32C120.202 546.32 119.328 546.087 118.555 545.62C117.782 545.153 117.175 544.513 116.735 543.7C116.308 542.873 116.095 541.947 116.095 540.92C116.095 539.933 116.295 539.027 116.695 538.2C117.108 537.373 117.688 536.713 118.435 536.22C119.182 535.727 120.048 535.48 121.035 535.48C122.035 535.48 122.902 535.707 123.635 536.16C124.368 536.6 124.928 537.213 125.315 538C125.715 538.787 125.915 539.687 125.915 540.7C125.915 540.9 125.895 541.073 125.855 541.22H117.795C117.835 541.993 118.022 542.647 118.355 543.18C118.688 543.713 119.108 544.113 119.615 544.38C120.135 544.647 120.675 544.78 121.235 544.78C122.542 544.78 123.548 544.167 124.255 542.94L125.695 543.64C125.255 544.467 124.655 545.12 123.895 545.6C123.148 546.08 122.242 546.32 121.175 546.32ZM124.115 539.82C124.088 539.393 123.968 538.967 123.755 538.54C123.542 538.113 123.202 537.753 122.735 537.46C122.282 537.167 121.708 537.02 121.015 537.02C120.215 537.02 119.535 537.28 118.975 537.8C118.428 538.307 118.068 538.98 117.895 539.82H124.115ZM136.473 546.16C136.06 546.16 135.673 546.093 135.313 545.96C134.966 545.827 134.673 545.647 134.433 545.42C134.166 545.167 133.966 544.873 133.833 544.54C133.7 544.207 133.633 543.8 133.633 543.32V537.34H131.853V535.8H133.633V532.92H135.333V535.8H137.813V537.34H135.333V542.9C135.333 543.46 135.44 543.873 135.653 544.14C135.906 544.433 136.273 544.58 136.753 544.58C137.14 544.58 137.513 544.467 137.873 544.24V545.9C137.673 545.993 137.466 546.06 137.253 546.1C137.053 546.14 136.793 546.16 136.473 546.16ZM144.128 546.32C143.128 546.32 142.228 546.08 141.428 545.6C140.628 545.12 140.001 544.467 139.548 543.64C139.108 542.813 138.888 541.9 138.888 540.9C138.888 539.9 139.108 538.987 139.548 538.16C140.001 537.333 140.628 536.68 141.428 536.2C142.228 535.72 143.128 535.48 144.128 535.48C145.128 535.48 146.028 535.72 146.828 536.2C147.628 536.68 148.248 537.333 148.688 538.16C149.141 538.987 149.368 539.9 149.368 540.9C149.368 541.9 149.141 542.813 148.688 543.64C148.248 544.467 147.628 545.12 146.828 545.6C146.028 546.08 145.128 546.32 144.128 546.32ZM144.128 544.78C144.755 544.78 145.335 544.627 145.868 544.32C146.415 544 146.848 543.547 147.168 542.96C147.501 542.373 147.668 541.687 147.668 540.9C147.668 540.113 147.501 539.427 147.168 538.84C146.848 538.253 146.415 537.807 145.868 537.5C145.335 537.18 144.755 537.02 144.128 537.02C143.501 537.02 142.915 537.18 142.368 537.5C141.821 537.807 141.381 538.253 141.048 538.84C140.728 539.427 140.568 540.113 140.568 540.9C140.568 541.687 140.728 542.373 141.048 542.96C141.381 543.547 141.821 544 142.368 544.32C142.915 544.627 143.501 544.78 144.128 544.78ZM159.55 546.32C158.457 546.32 157.544 546.067 156.81 545.56C156.077 545.04 155.557 544.38 155.25 543.58L156.77 542.9C157.024 543.513 157.397 543.987 157.89 544.32C158.397 544.653 158.95 544.82 159.55 544.82C160.19 544.82 160.737 544.693 161.19 544.44C161.644 544.173 161.87 543.8 161.87 543.32C161.87 542.893 161.69 542.553 161.33 542.3C160.97 542.033 160.404 541.807 159.63 541.62L158.39 541.3C157.577 541.1 156.91 540.76 156.39 540.28C155.87 539.8 155.61 539.18 155.61 538.42C155.61 537.833 155.784 537.32 156.13 536.88C156.49 536.427 156.964 536.08 157.55 535.84C158.137 535.6 158.77 535.48 159.45 535.48C160.344 535.48 161.137 535.673 161.83 536.06C162.537 536.447 163.037 536.987 163.33 537.68L161.85 538.36C161.397 537.453 160.59 537 159.43 537C158.87 537 158.377 537.133 157.95 537.4C157.537 537.653 157.33 537.98 157.33 538.38C157.33 538.753 157.477 539.06 157.77 539.3C158.064 539.527 158.504 539.713 159.09 539.86L160.57 540.24C161.57 540.493 162.324 540.873 162.83 541.38C163.337 541.873 163.59 542.48 163.59 543.2C163.59 543.827 163.41 544.38 163.05 544.86C162.69 545.327 162.204 545.687 161.59 545.94C160.977 546.193 160.297 546.32 159.55 546.32ZM170.081 546.32C169.108 546.32 168.235 546.087 167.461 545.62C166.688 545.153 166.081 544.513 165.641 543.7C165.215 542.873 165.001 541.947 165.001 540.92C165.001 539.933 165.201 539.027 165.601 538.2C166.015 537.373 166.595 536.713 167.341 536.22C168.088 535.727 168.955 535.48 169.941 535.48C170.941 535.48 171.808 535.707 172.541 536.16C173.275 536.6 173.835 537.213 174.221 538C174.621 538.787 174.821 539.687 174.821 540.7C174.821 540.9 174.801 541.073 174.761 541.22H166.701C166.741 541.993 166.928 542.647 167.261 543.18C167.595 543.713 168.015 544.113 168.521 544.38C169.041 544.647 169.581 544.78 170.141 544.78C171.448 544.78 172.455 544.167 173.161 542.94L174.601 543.64C174.161 544.467 173.561 545.12 172.801 545.6C172.055 546.08 171.148 546.32 170.081 546.32ZM173.021 539.82C172.995 539.393 172.875 538.967 172.661 538.54C172.448 538.113 172.108 537.753 171.641 537.46C171.188 537.167 170.615 537.02 169.921 537.02C169.121 537.02 168.441 537.28 167.881 537.8C167.335 538.307 166.975 538.98 166.801 539.82H173.021ZM181.448 546.32C180.475 546.32 179.602 546.087 178.828 545.62C178.055 545.153 177.448 544.513 177.008 543.7C176.582 542.873 176.368 541.947 176.368 540.92C176.368 539.933 176.568 539.027 176.968 538.2C177.382 537.373 177.962 536.713 178.708 536.22C179.455 535.727 180.322 535.48 181.308 535.48C182.308 535.48 183.175 535.707 183.908 536.16C184.642 536.6 185.202 537.213 185.588 538C185.988 538.787 186.188 539.687 186.188 540.7C186.188 540.9 186.168 541.073 186.128 541.22H178.068C178.108 541.993 178.295 542.647 178.628 543.18C178.962 543.713 179.382 544.113 179.888 544.38C180.408 544.647 180.948 544.78 181.508 544.78C182.815 544.78 183.822 544.167 184.528 542.94L185.968 543.64C185.528 544.467 184.928 545.12 184.168 545.6C183.422 546.08 182.515 546.32 181.448 546.32ZM184.388 539.82C184.362 539.393 184.242 538.967 184.028 538.54C183.815 538.113 183.475 537.753 183.008 537.46C182.555 537.167 181.982 537.02 181.288 537.02C180.488 537.02 179.808 537.28 179.248 537.8C178.702 538.307 178.342 538.98 178.168 539.82H184.388ZM195.946 545.36L191.726 535.8H193.566L196.766 543.38H196.806L199.886 535.8H201.726L195.426 550.32H193.666L195.946 545.36ZM207.448 546.32C206.448 546.32 205.548 546.08 204.748 545.6C203.948 545.12 203.322 544.467 202.868 543.64C202.428 542.813 202.208 541.9 202.208 540.9C202.208 539.9 202.428 538.987 202.868 538.16C203.322 537.333 203.948 536.68 204.748 536.2C205.548 535.72 206.448 535.48 207.448 535.48C208.448 535.48 209.348 535.72 210.148 536.2C210.948 536.68 211.568 537.333 212.008 538.16C212.462 538.987 212.688 539.9 212.688 540.9C212.688 541.9 212.462 542.813 212.008 543.64C211.568 544.467 210.948 545.12 210.148 545.6C209.348 546.08 208.448 546.32 207.448 546.32ZM207.448 544.78C208.075 544.78 208.655 544.627 209.188 544.32C209.735 544 210.168 543.547 210.488 542.96C210.822 542.373 210.988 541.687 210.988 540.9C210.988 540.113 210.822 539.427 210.488 538.84C210.168 538.253 209.735 537.807 209.188 537.5C208.655 537.18 208.075 537.02 207.448 537.02C206.822 537.02 206.235 537.18 205.688 537.5C205.142 537.807 204.702 538.253 204.368 538.84C204.048 539.427 203.888 540.113 203.888 540.9C203.888 541.687 204.048 542.373 204.368 542.96C204.702 543.547 205.142 544 205.688 544.32C206.235 544.627 206.822 544.78 207.448 544.78ZM218.265 546.32C217.038 546.32 216.098 545.96 215.445 545.24C214.805 544.52 214.485 543.513 214.485 542.22V535.8H216.185V541.96C216.185 542.933 216.405 543.647 216.845 544.1C217.285 544.553 217.878 544.78 218.625 544.78C219.198 544.78 219.705 544.627 220.145 544.32C220.598 544.013 220.945 543.613 221.185 543.12C221.438 542.627 221.565 542.107 221.565 541.56V535.8H223.265V546H221.645V544.52H221.565C221.285 545.027 220.838 545.453 220.225 545.8C219.611 546.147 218.958 546.32 218.265 546.32ZM233.684 546.32C232.937 546.32 232.271 546.173 231.684 545.88C231.097 545.587 230.644 545.187 230.324 544.68C230.004 544.16 229.844 543.573 229.844 542.92C229.844 541.84 230.251 541 231.064 540.4C231.877 539.787 232.904 539.48 234.144 539.48C234.757 539.48 235.324 539.547 235.844 539.68C236.377 539.813 236.784 539.967 237.064 540.14V539.52C237.064 538.76 236.797 538.153 236.264 537.7C235.731 537.233 235.057 537 234.244 537C233.671 537 233.144 537.127 232.664 537.38C232.184 537.62 231.804 537.96 231.524 538.4L230.244 537.44C230.644 536.827 231.191 536.347 231.884 536C232.591 535.653 233.371 535.48 234.224 535.48C235.611 535.48 236.697 535.847 237.484 536.58C238.284 537.3 238.684 538.287 238.684 539.54V546H237.064V544.54H236.984C236.691 545.033 236.251 545.453 235.664 545.8C235.077 546.147 234.417 546.32 233.684 546.32ZM233.844 544.82C234.417 544.82 234.951 544.673 235.444 544.38C235.937 544.087 236.331 543.693 236.624 543.2C236.917 542.707 237.064 542.167 237.064 541.58C236.744 541.367 236.351 541.193 235.884 541.06C235.417 540.927 234.924 540.86 234.404 540.86C233.471 540.86 232.764 541.053 232.284 541.44C231.817 541.827 231.584 542.327 231.584 542.94C231.584 543.5 231.797 543.953 232.224 544.3C232.651 544.647 233.191 544.82 233.844 544.82ZM245.431 550.64C244.231 550.64 243.238 550.36 242.451 549.8C241.678 549.24 241.158 548.567 240.891 547.78L242.431 547.12C242.658 547.707 243.031 548.18 243.551 548.54C244.085 548.913 244.711 549.1 245.431 549.1C246.485 549.1 247.298 548.793 247.871 548.18C248.458 547.567 248.751 546.7 248.751 545.58V544.44H248.671C248.338 544.96 247.865 545.387 247.251 545.72C246.651 546.04 245.965 546.2 245.191 546.2C244.311 546.2 243.505 545.973 242.771 545.52C242.051 545.067 241.478 544.433 241.051 543.62C240.625 542.807 240.411 541.88 240.411 540.84C240.411 539.813 240.625 538.893 241.051 538.08C241.478 537.253 242.051 536.613 242.771 536.16C243.505 535.707 244.311 535.48 245.191 535.48C245.965 535.48 246.651 535.647 247.251 535.98C247.865 536.3 248.338 536.727 248.671 537.26H248.751V535.8H250.371V545.6C250.371 547.24 249.918 548.487 249.011 549.34C248.105 550.207 246.911 550.64 245.431 550.64ZM245.431 544.66C246.045 544.66 246.598 544.507 247.091 544.2C247.598 543.893 247.998 543.453 248.291 542.88C248.598 542.307 248.751 541.627 248.751 540.84C248.751 540.04 248.598 539.353 248.291 538.78C247.998 538.207 247.598 537.773 247.091 537.48C246.598 537.173 246.045 537.02 245.431 537.02C244.818 537.02 244.258 537.173 243.751 537.48C243.245 537.787 242.838 538.227 242.531 538.8C242.238 539.373 242.091 540.053 242.091 540.84C242.091 541.627 242.238 542.313 242.531 542.9C242.838 543.473 243.245 543.913 243.751 544.22C244.258 544.513 244.818 544.66 245.431 544.66ZM256.047 546.32C255.301 546.32 254.634 546.173 254.047 545.88C253.461 545.587 253.007 545.187 252.687 544.68C252.367 544.16 252.207 543.573 252.207 542.92C252.207 541.84 252.614 541 253.427 540.4C254.241 539.787 255.267 539.48 256.507 539.48C257.121 539.48 257.687 539.547 258.207 539.68C258.741 539.813 259.147 539.967 259.427 540.14V539.52C259.427 538.76 259.161 538.153 258.627 537.7C258.094 537.233 257.421 537 256.607 537C256.034 537 255.507 537.127 255.027 537.38C254.547 537.62 254.167 537.96 253.887 538.4L252.607 537.44C253.007 536.827 253.554 536.347 254.247 536C254.954 535.653 255.734 535.48 256.587 535.48C257.974 535.48 259.061 535.847 259.847 536.58C260.647 537.3 261.047 538.287 261.047 539.54V546H259.427V544.54H259.347C259.054 545.033 258.614 545.453 258.027 545.8C257.441 546.147 256.781 546.32 256.047 546.32ZM256.207 544.82C256.781 544.82 257.314 544.673 257.807 544.38C258.301 544.087 258.694 543.693 258.987 543.2C259.281 542.707 259.427 542.167 259.427 541.58C259.107 541.367 258.714 541.193 258.247 541.06C257.781 540.927 257.287 540.86 256.767 540.86C255.834 540.86 255.127 541.053 254.647 541.44C254.181 541.827 253.947 542.327 253.947 542.94C253.947 543.5 254.161 543.953 254.587 544.3C255.014 544.647 255.554 544.82 256.207 544.82ZM264.412 533.92C264.079 533.92 263.792 533.8 263.552 533.56C263.312 533.32 263.192 533.033 263.192 532.7C263.192 532.367 263.312 532.087 263.552 531.86C263.792 531.62 264.079 531.5 264.412 531.5C264.746 531.5 265.032 531.62 265.272 531.86C265.512 532.087 265.632 532.367 265.632 532.7C265.632 533.033 265.512 533.32 265.272 533.56C265.046 533.8 264.759 533.92 264.412 533.92ZM263.572 535.8H265.252V546H263.572V535.8ZM267.924 535.8H269.544V537.3H269.624C269.904 536.793 270.351 536.367 270.964 536.02C271.577 535.66 272.231 535.48 272.924 535.48C274.151 535.48 275.084 535.84 275.724 536.56C276.377 537.267 276.704 538.233 276.704 539.46V546H275.004V539.72C275.004 538.773 274.777 538.087 274.324 537.66C273.871 537.233 273.251 537.02 272.464 537.02C271.917 537.02 271.424 537.173 270.984 537.48C270.557 537.787 270.224 538.193 269.984 538.7C269.744 539.193 269.624 539.713 269.624 540.26V546H267.924V535.8ZM287.343 546.32C286.25 546.32 285.337 546.067 284.603 545.56C283.87 545.04 283.35 544.38 283.043 543.58L284.563 542.9C284.817 543.513 285.19 543.987 285.683 544.32C286.19 544.653 286.743 544.82 287.343 544.82C287.983 544.82 288.53 544.693 288.983 544.44C289.437 544.173 289.663 543.8 289.663 543.32C289.663 542.893 289.483 542.553 289.123 542.3C288.763 542.033 288.197 541.807 287.423 541.62L286.183 541.3C285.37 541.1 284.703 540.76 284.183 540.28C283.663 539.8 283.403 539.18 283.403 538.42C283.403 537.833 283.577 537.32 283.923 536.88C284.283 536.427 284.757 536.08 285.343 535.84C285.93 535.6 286.563 535.48 287.243 535.48C288.137 535.48 288.93 535.673 289.623 536.06C290.33 536.447 290.83 536.987 291.123 537.68L289.643 538.36C289.19 537.453 288.383 537 287.223 537C286.663 537 286.17 537.133 285.743 537.4C285.33 537.653 285.123 537.98 285.123 538.38C285.123 538.753 285.27 539.06 285.563 539.3C285.857 539.527 286.297 539.713 286.883 539.86L288.363 540.24C289.363 540.493 290.117 540.873 290.623 541.38C291.13 541.873 291.383 542.48 291.383 543.2C291.383 543.827 291.203 544.38 290.843 544.86C290.483 545.327 289.997 545.687 289.383 545.94C288.77 546.193 288.09 546.32 287.343 546.32ZM298.034 546.32C297.034 546.32 296.134 546.08 295.334 545.6C294.534 545.12 293.908 544.467 293.454 543.64C293.014 542.813 292.794 541.9 292.794 540.9C292.794 539.9 293.014 538.987 293.454 538.16C293.908 537.333 294.534 536.68 295.334 536.2C296.134 535.72 297.034 535.48 298.034 535.48C299.034 535.48 299.934 535.72 300.734 536.2C301.534 536.68 302.154 537.333 302.594 538.16C303.048 538.987 303.274 539.9 303.274 540.9C303.274 541.9 303.048 542.813 302.594 543.64C302.154 544.467 301.534 545.12 300.734 545.6C299.934 546.08 299.034 546.32 298.034 546.32ZM298.034 544.78C298.661 544.78 299.241 544.627 299.774 544.32C300.321 544 300.754 543.547 301.074 542.96C301.408 542.373 301.574 541.687 301.574 540.9C301.574 540.113 301.408 539.427 301.074 538.84C300.754 538.253 300.321 537.807 299.774 537.5C299.241 537.18 298.661 537.02 298.034 537.02C297.408 537.02 296.821 537.18 296.274 537.5C295.728 537.807 295.288 538.253 294.954 538.84C294.634 539.427 294.474 540.113 294.474 540.9C294.474 541.687 294.634 542.373 294.954 542.96C295.288 543.547 295.728 544 296.274 544.32C296.821 544.627 297.408 544.78 298.034 544.78ZM309.948 546.32C308.948 546.32 308.048 546.08 307.248 545.6C306.448 545.12 305.822 544.467 305.368 543.64C304.928 542.813 304.708 541.9 304.708 540.9C304.708 539.9 304.928 538.987 305.368 538.16C305.822 537.333 306.448 536.68 307.248 536.2C308.048 535.72 308.948 535.48 309.948 535.48C310.948 535.48 311.848 535.72 312.648 536.2C313.448 536.68 314.068 537.333 314.508 538.16C314.962 538.987 315.188 539.9 315.188 540.9C315.188 541.9 314.962 542.813 314.508 543.64C314.068 544.467 313.448 545.12 312.648 545.6C311.848 546.08 310.948 546.32 309.948 546.32ZM309.948 544.78C310.575 544.78 311.155 544.627 311.688 544.32C312.235 544 312.668 543.547 312.988 542.96C313.322 542.373 313.488 541.687 313.488 540.9C313.488 540.113 313.322 539.427 312.988 538.84C312.668 538.253 312.235 537.807 311.688 537.5C311.155 537.18 310.575 537.02 309.948 537.02C309.322 537.02 308.735 537.18 308.188 537.5C307.642 537.807 307.202 538.253 306.868 538.84C306.548 539.427 306.388 540.113 306.388 540.9C306.388 541.687 306.548 542.373 306.868 542.96C307.202 543.547 307.642 544 308.188 544.32C308.735 544.627 309.322 544.78 309.948 544.78ZM316.967 535.8H318.587V537.3H318.667C318.947 536.793 319.394 536.367 320.007 536.02C320.62 535.66 321.274 535.48 321.967 535.48C323.194 535.48 324.127 535.84 324.767 536.56C325.42 537.267 325.747 538.233 325.747 539.46V546H324.047V539.72C324.047 538.773 323.82 538.087 323.367 537.66C322.914 537.233 322.294 537.02 321.507 537.02C320.96 537.02 320.467 537.173 320.027 537.48C319.6 537.787 319.267 538.193 319.027 538.7C318.787 539.193 318.667 539.713 318.667 540.26V546H316.967V535.8ZM328.458 536.54V531.68H330.138V536.54L329.938 541.78H328.638L328.458 536.54ZM329.298 546.12C328.938 546.12 328.631 546 328.378 545.76C328.138 545.507 328.018 545.2 328.018 544.84C328.018 544.493 328.138 544.2 328.378 543.96C328.631 543.707 328.938 543.58 329.298 543.58C329.645 543.58 329.938 543.707 330.178 543.96C330.431 544.2 330.558 544.493 330.558 544.84C330.558 545.2 330.431 545.507 330.178 545.76C329.938 546 329.645 546.12 329.298 546.12Z" fill="black"/>
<path d="M120.428 395.384C118.764 395.384 117.244 394.992 115.868 394.208C114.492 393.424 113.412 392.344 112.628 390.968C111.844 389.592 111.452 388.072 111.452 386.408C111.452 384.744 111.844 383.224 112.628 381.848C113.412 380.472 114.492 379.392 115.868 378.608C117.244 377.824 118.764 377.432 120.428 377.432C121.724 377.432 122.9 377.672 123.956 378.152C125.028 378.632 125.972 379.328 126.788 380.24L124.868 382.088C124.276 381.384 123.62 380.864 122.9 380.528C122.18 380.176 121.356 380 120.428 380C119.276 380 118.22 380.264 117.26 380.792C116.316 381.32 115.564 382.072 115.004 383.048C114.444 384.008 114.164 385.128 114.164 386.408C114.164 387.688 114.444 388.816 115.004 389.792C115.564 390.752 116.316 391.496 117.26 392.024C118.22 392.552 119.276 392.816 120.428 392.816C122.348 392.816 123.98 392.016 125.324 390.416L127.268 392.288C126.436 393.264 125.436 394.024 124.268 394.568C123.1 395.112 121.82 395.384 120.428 395.384ZM135.504 395.384C134.272 395.384 133.168 395.104 132.192 394.544C131.216 393.968 130.456 393.184 129.912 392.192C129.368 391.2 129.096 390.096 129.096 388.88C129.096 387.664 129.368 386.56 129.912 385.568C130.456 384.576 131.216 383.8 132.192 383.24C133.168 382.664 134.272 382.376 135.504 382.376C136.736 382.376 137.84 382.664 138.816 383.24C139.792 383.816 140.552 384.6 141.096 385.592C141.64 386.584 141.912 387.68 141.912 388.88C141.912 390.096 141.64 391.2 141.096 392.192C140.552 393.184 139.792 393.968 138.816 394.544C137.84 395.104 136.736 395.384 135.504 395.384ZM135.504 392.96C136.176 392.96 136.8 392.8 137.376 392.48C137.952 392.144 138.408 391.672 138.744 391.064C139.096 390.44 139.272 389.712 139.272 388.88C139.272 388.048 139.096 387.328 138.744 386.72C138.408 386.112 137.952 385.648 137.376 385.328C136.8 384.992 136.176 384.824 135.504 384.824C134.832 384.824 134.208 384.992 133.632 385.328C133.056 385.648 132.592 386.112 132.24 386.72C131.904 387.328 131.736 388.048 131.736 388.88C131.736 389.712 131.904 390.44 132.24 391.064C132.592 391.672 133.056 392.144 133.632 392.48C134.208 392.8 134.832 392.96 135.504 392.96ZM144.512 382.76H147.032V384.368H147.152C147.504 383.792 148.024 383.32 148.712 382.952C149.416 382.568 150.16 382.376 150.944 382.376C152.432 382.376 153.56 382.816 154.328 383.696C155.112 384.56 155.504 385.744 155.504 387.248V395H152.864V387.608C152.864 386.648 152.624 385.944 152.144 385.496C151.68 385.048 151.032 384.824 150.2 384.824C149.608 384.824 149.08 384.992 148.616 385.328C148.152 385.648 147.792 386.08 147.536 386.624C147.28 387.168 147.152 387.752 147.152 388.376V395H144.512V382.76ZM164.283 400.568C162.779 400.568 161.531 400.224 160.539 399.536C159.563 398.848 158.907 398.032 158.571 397.088L161.043 396.056C161.299 396.696 161.707 397.208 162.267 397.592C162.843 397.992 163.515 398.192 164.283 398.192C165.403 398.192 166.275 397.856 166.899 397.184C167.539 396.528 167.859 395.6 167.859 394.4V393.272H167.715C167.315 393.848 166.779 394.304 166.107 394.64C165.451 394.96 164.691 395.12 163.827 395.12C162.803 395.12 161.851 394.856 160.971 394.328C160.091 393.8 159.387 393.056 158.859 392.096C158.347 391.12 158.091 390.008 158.091 388.76C158.091 387.512 158.347 386.408 158.859 385.448C159.387 384.472 160.091 383.72 160.971 383.192C161.851 382.648 162.803 382.376 163.827 382.376C164.675 382.376 165.435 382.544 166.107 382.88C166.779 383.216 167.315 383.672 167.715 384.248H167.859V382.76H170.379V394.328C170.379 395.656 170.123 396.784 169.611 397.712C169.099 398.656 168.379 399.368 167.451 399.848C166.539 400.328 165.483 400.568 164.283 400.568ZM164.307 392.72C164.947 392.72 165.539 392.568 166.083 392.264C166.627 391.944 167.059 391.488 167.379 390.896C167.699 390.288 167.859 389.576 167.859 388.76C167.859 387.512 167.515 386.544 166.827 385.856C166.155 385.152 165.315 384.8 164.307 384.8C163.651 384.8 163.051 384.96 162.507 385.28C161.963 385.584 161.531 386.032 161.211 386.624C160.891 387.216 160.731 387.928 160.731 388.76C160.731 389.592 160.891 390.304 161.211 390.896C161.531 391.488 161.963 391.944 162.507 392.264C163.051 392.568 163.651 392.72 164.307 392.72ZM173.882 382.76H176.402V384.56H176.522C176.794 383.936 177.266 383.424 177.938 383.024C178.61 382.608 179.322 382.4 180.074 382.4C180.666 382.4 181.162 382.48 181.562 382.64V385.376C180.858 385.12 180.226 384.992 179.666 384.992C179.058 384.992 178.514 385.152 178.034 385.472C177.57 385.792 177.202 386.224 176.93 386.768C176.658 387.296 176.522 387.88 176.522 388.52V395H173.882V382.76ZM187.403 395.384C186.523 395.384 185.739 395.216 185.051 394.88C184.363 394.528 183.827 394.04 183.443 393.416C183.059 392.776 182.867 392.056 182.867 391.256C182.867 389.992 183.339 388.992 184.283 388.256C185.243 387.52 186.451 387.152 187.907 387.152C188.627 387.152 189.275 387.224 189.851 387.368C190.427 387.496 190.883 387.64 191.219 387.8V387.176C191.219 386.424 190.939 385.816 190.379 385.352C189.819 384.872 189.099 384.632 188.219 384.632C187.595 384.632 187.003 384.768 186.443 385.04C185.899 385.312 185.459 385.688 185.123 386.168L183.275 384.752C183.819 384 184.523 383.416 185.387 383C186.251 382.584 187.211 382.376 188.267 382.376C190.043 382.376 191.411 382.816 192.371 383.696C193.331 384.56 193.811 385.784 193.811 387.368V395H191.219V393.536H191.099C190.747 394.064 190.251 394.504 189.611 394.856C188.971 395.208 188.235 395.384 187.403 395.384ZM187.859 393.2C188.499 393.2 189.075 393.048 189.587 392.744C190.099 392.44 190.499 392.032 190.787 391.52C191.075 391.008 191.219 390.456 191.219 389.864C190.851 389.656 190.419 389.488 189.923 389.36C189.443 389.232 188.939 389.168 188.411 389.168C187.419 389.168 186.691 389.368 186.227 389.768C185.763 390.152 185.531 390.656 185.531 391.28C185.531 391.84 185.747 392.304 186.179 392.672C186.611 393.024 187.171 393.2 187.859 393.2ZM201.87 395.192C201.326 395.192 200.814 395.104 200.334 394.928C199.854 394.752 199.462 394.52 199.158 394.232C198.47 393.544 198.126 392.608 198.126 391.424V385.088H195.99V382.76H198.126V379.304H200.766V382.76H203.742V385.088H200.766V390.848C200.766 391.504 200.894 391.968 201.15 392.24C201.39 392.56 201.806 392.72 202.398 392.72C202.67 392.72 202.91 392.688 203.118 392.624C203.326 392.544 203.55 392.424 203.79 392.264V394.832C203.262 395.072 202.622 395.192 201.87 395.192ZM211.116 395.384C209.628 395.384 208.492 394.944 207.708 394.064C206.94 393.168 206.556 391.928 206.556 390.344V382.76H209.196V389.984C209.196 390.976 209.428 391.72 209.892 392.216C210.372 392.712 210.996 392.96 211.764 392.96C212.388 392.96 212.94 392.8 213.42 392.48C213.9 392.144 214.268 391.704 214.524 391.16C214.78 390.616 214.908 390.032 214.908 389.408V382.76H217.548V395H215.052V393.416H214.908C214.572 393.992 214.052 394.464 213.348 394.832C212.644 395.2 211.9 395.384 211.116 395.384ZM221.021 377.816H223.661V395H221.021V377.816ZM230.886 395.384C230.006 395.384 229.222 395.216 228.534 394.88C227.846 394.528 227.31 394.04 226.926 393.416C226.542 392.776 226.35 392.056 226.35 391.256C226.35 389.992 226.822 388.992 227.766 388.256C228.726 387.52 229.934 387.152 231.39 387.152C232.11 387.152 232.758 387.224 233.334 387.368C233.91 387.496 234.366 387.64 234.702 387.8V387.176C234.702 386.424 234.422 385.816 233.862 385.352C233.302 384.872 232.582 384.632 231.702 384.632C231.078 384.632 230.486 384.768 229.926 385.04C229.382 385.312 228.942 385.688 228.606 386.168L226.758 384.752C227.302 384 228.006 383.416 228.87 383C229.734 382.584 230.694 382.376 231.75 382.376C233.526 382.376 234.894 382.816 235.854 383.696C236.814 384.56 237.294 385.784 237.294 387.368V395H234.702V393.536H234.582C234.23 394.064 233.734 394.504 233.094 394.856C232.454 395.208 231.718 395.384 230.886 395.384ZM231.342 393.2C231.982 393.2 232.558 393.048 233.07 392.744C233.582 392.44 233.982 392.032 234.27 391.52C234.558 391.008 234.702 390.456 234.702 389.864C234.334 389.656 233.902 389.488 233.406 389.36C232.926 389.232 232.422 389.168 231.894 389.168C230.902 389.168 230.174 389.368 229.71 389.768C229.246 390.152 229.014 390.656 229.014 391.28C229.014 391.84 229.23 392.304 229.662 392.672C230.094 393.024 230.654 393.2 231.342 393.2ZM245.353 395.192C244.809 395.192 244.297 395.104 243.817 394.928C243.337 394.752 242.945 394.52 242.641 394.232C241.953 393.544 241.609 392.608 241.609 391.424V385.088H239.473V382.76H241.609V379.304H244.249V382.76H247.225V385.088H244.249V390.848C244.249 391.504 244.377 391.968 244.633 392.24C244.873 392.56 245.289 392.72 245.881 392.72C246.153 392.72 246.393 392.688 246.601 392.624C246.809 392.544 247.033 392.424 247.273 392.264V394.832C246.745 395.072 246.105 395.192 245.353 395.192ZM251.764 380.984C251.268 380.984 250.844 380.816 250.492 380.48C250.156 380.128 249.988 379.704 249.988 379.208C249.988 378.712 250.156 378.296 250.492 377.96C250.844 377.608 251.268 377.432 251.764 377.432C252.26 377.432 252.676 377.608 253.012 377.96C253.364 378.296 253.54 378.712 253.54 379.208C253.54 379.704 253.364 380.128 253.012 380.48C252.676 380.816 252.26 380.984 251.764 380.984ZM250.444 382.76H253.084V395H250.444V382.76ZM262.388 395.384C261.156 395.384 260.052 395.104 259.076 394.544C258.1 393.968 257.34 393.184 256.796 392.192C256.252 391.2 255.98 390.096 255.98 388.88C255.98 387.664 256.252 386.56 256.796 385.568C257.34 384.576 258.1 383.8 259.076 383.24C260.052 382.664 261.156 382.376 262.388 382.376C263.62 382.376 264.724 382.664 265.7 383.24C266.676 383.816 267.436 384.6 267.98 385.592C268.524 386.584 268.796 387.68 268.796 388.88C268.796 390.096 268.524 391.2 267.98 392.192C267.436 393.184 266.676 393.968 265.7 394.544C264.724 395.104 263.62 395.384 262.388 395.384ZM262.388 392.96C263.06 392.96 263.684 392.8 264.26 392.48C264.836 392.144 265.292 391.672 265.628 391.064C265.98 390.44 266.156 389.712 266.156 388.88C266.156 388.048 265.98 387.328 265.628 386.72C265.292 386.112 264.836 385.648 264.26 385.328C263.684 384.992 263.06 384.824 262.388 384.824C261.716 384.824 261.092 384.992 260.516 385.328C259.94 385.648 259.476 386.112 259.124 386.72C258.788 387.328 258.62 388.048 258.62 388.88C258.62 389.712 258.788 390.44 259.124 391.064C259.476 391.672 259.94 392.144 260.516 392.48C261.092 392.8 261.716 392.96 262.388 392.96ZM271.396 382.76H273.916V384.368H274.036C274.388 383.792 274.908 383.32 275.596 382.952C276.3 382.568 277.044 382.376 277.828 382.376C279.316 382.376 280.444 382.816 281.212 383.696C281.996 384.56 282.388 385.744 282.388 387.248V395H279.748V387.608C279.748 386.648 279.508 385.944 279.028 385.496C278.564 385.048 277.916 384.824 277.084 384.824C276.492 384.824 275.964 384.992 275.5 385.328C275.036 385.648 274.676 386.08 274.42 386.624C274.164 387.168 274.036 387.752 274.036 388.376V395H271.396V382.76ZM290.112 395.384C288.704 395.384 287.552 395.08 286.656 394.472C285.76 393.848 285.128 393.056 284.76 392.096L287.112 391.064C287.4 391.704 287.8 392.192 288.312 392.528C288.84 392.864 289.44 393.032 290.112 393.032C290.768 393.032 291.32 392.92 291.768 392.696C292.216 392.456 292.44 392.104 292.44 391.64C292.44 391.192 292.248 390.84 291.864 390.584C291.48 390.328 290.888 390.104 290.088 389.912L288.624 389.552C287.648 389.312 286.84 388.888 286.2 388.28C285.56 387.672 285.24 386.904 285.24 385.976C285.24 385.256 285.448 384.624 285.864 384.08C286.296 383.536 286.872 383.12 287.592 382.832C288.312 382.528 289.096 382.376 289.944 382.376C291.08 382.376 292.08 382.608 292.944 383.072C293.808 383.52 294.432 384.176 294.816 385.04L292.512 386.048C292.048 385.104 291.2 384.632 289.968 384.632C289.376 384.632 288.88 384.752 288.48 384.992C288.08 385.232 287.88 385.544 287.88 385.928C287.88 386.296 288.032 386.6 288.336 386.84C288.64 387.064 289.088 387.256 289.68 387.416L291.48 387.872C292.68 388.176 293.584 388.64 294.192 389.264C294.816 389.872 295.128 390.624 295.128 391.52C295.128 392.288 294.904 392.968 294.456 393.56C294.024 394.136 293.424 394.584 292.656 394.904C291.888 395.224 291.04 395.384 290.112 395.384ZM298.125 383.024V377.816H300.813V383.024L300.549 389.408H298.389L298.125 383.024ZM299.469 395.144C298.957 395.144 298.517 394.968 298.149 394.616C297.797 394.248 297.621 393.808 297.621 393.296C297.621 392.784 297.797 392.352 298.149 392C298.517 391.648 298.957 391.472 299.469 391.472C299.981 391.472 300.413 391.648 300.765 392C301.133 392.352 301.317 392.784 301.317 393.296C301.317 393.808 301.133 394.248 300.765 394.616C300.413 394.968 299.981 395.144 299.469 395.144Z" fill="#0088FF"/>
<path d="M251.689 303.862C251.694 304.594 251.563 305.32 251.304 306.005C250.999 306.911 250.486 307.733 249.804 308.404C248.601 309.611 246.967 310.289 245.262 310.289H240.978C244.527 310.289 247.405 313.167 247.405 316.716C247.409 317.448 247.278 318.174 247.019 318.858C246.715 319.765 246.201 320.587 245.519 321.258C244.316 322.465 242.682 323.143 240.978 323.143H236.693C240.243 323.143 243.12 326.021 243.12 329.57C243.12 333.12 240.243 335.997 236.693 335.997H198.131C194.853 336.049 191.596 335.474 188.533 334.305C186.434 333.469 184.592 332.12 182.556 331.134C180.396 330.102 178.031 329.568 175.637 329.57H174.565V286.724C178.926 286.719 183.194 285.462 186.862 283.103C194.596 278.176 206.315 269.221 203.787 257.824C202.93 253.989 202.609 250.24 206.7 248.162C211.242 245.848 215.591 248.783 217.712 252.489C224.846 264.979 212.378 284.581 212.378 284.581H243.12C246.67 284.581 249.547 287.459 249.547 291.008C249.552 291.74 249.421 292.466 249.161 293.151C248.857 294.057 248.343 294.879 247.662 295.55C246.459 296.757 244.824 297.435 243.12 297.435H245.262C248.812 297.435 251.689 300.313 251.689 303.862Z" fill="#F7C084"/>
<path d="M247.019 318.858C246.715 319.765 246.201 320.587 245.52 321.257C244.317 322.464 242.682 323.143 240.978 323.143H230.266C229.083 323.143 228.124 322.183 228.124 321C228.124 319.817 229.083 318.858 230.266 318.858H247.019Z" fill="#E8A15B"/>
<path d="M251.304 306.004C251 306.911 250.486 307.733 249.804 308.404C248.601 309.611 246.967 310.289 245.263 310.289H230.266C229.083 310.289 228.124 309.33 228.124 308.147C228.124 306.964 229.083 306.004 230.266 306.004H251.304Z" fill="#E8A15B"/>
<path d="M249.162 293.15C248.857 294.057 248.344 294.879 247.662 295.55C246.459 296.757 244.825 297.435 243.12 297.435H230.266C229.083 297.435 228.124 296.476 228.124 295.293C228.124 294.11 229.083 293.15 230.266 293.15H249.162Z" fill="#E8A15B"/>
<path d="M168.139 280.296H157.427C153.877 280.296 151 283.174 151 286.723V329.57C151 333.119 153.877 335.997 157.427 335.997H168.139C171.688 335.997 174.566 333.119 174.566 329.57V286.723C174.566 283.174 171.688 280.296 168.139 280.296Z" fill="#3B97D3"/>
<path d="M249.547 263.158C248.363 263.158 247.404 262.199 247.404 261.015V256.731C247.404 255.548 248.363 254.588 249.547 254.588C250.73 254.588 251.689 255.548 251.689 256.731V261.015C251.689 262.199 250.73 263.158 249.547 263.158Z" fill="#FF5364"/>
<path d="M249.547 276.012C248.363 276.012 247.404 275.053 247.404 273.869V269.585C247.404 268.402 248.363 267.442 249.547 267.442C250.73 267.442 251.689 268.402 251.689 269.585V273.869C251.689 275.053 250.73 276.012 249.547 276.012Z" fill="#FF5364"/>
<path d="M258.115 267.442H253.831C252.648 267.442 251.688 266.483 251.688 265.3C251.688 264.117 252.648 263.158 253.831 263.158H258.115C259.299 263.158 260.258 264.117 260.258 265.3C260.258 266.483 259.299 267.442 258.115 267.442Z" fill="#FF5364"/>
<path d="M245.262 267.442H240.977C239.794 267.442 238.835 266.483 238.835 265.3C238.835 264.117 239.794 263.158 240.977 263.158H245.262C246.445 263.158 247.404 264.117 247.404 265.3C247.404 266.483 246.445 267.442 245.262 267.442Z" fill="#FF5364"/>
<path d="M200.274 233.165C199.706 233.165 199.161 232.939 198.759 232.537L195.546 229.323C194.989 228.786 194.765 227.989 194.961 227.24C195.158 226.491 195.742 225.906 196.492 225.71C197.241 225.514 198.037 225.737 198.575 226.294L201.788 229.508C202.401 230.12 202.584 231.042 202.253 231.842C201.921 232.643 201.14 233.164 200.274 233.165Z" fill="#955BA5"/>
<path d="M190.633 223.525C190.065 223.524 189.52 223.299 189.119 222.897L185.905 219.683C185.093 218.843 185.105 217.507 185.931 216.68C186.758 215.854 188.094 215.842 188.934 216.654L192.148 219.868C192.76 220.48 192.944 221.402 192.612 222.202C192.281 223.002 191.5 223.524 190.633 223.525Z" fill="#955BA5"/>
<path d="M187.419 233.165C186.553 233.164 185.772 232.643 185.44 231.842C185.109 231.042 185.292 230.12 185.905 229.508L189.118 226.294C189.656 225.737 190.453 225.514 191.202 225.71C191.951 225.906 192.536 226.491 192.732 227.24C192.928 227.989 192.704 228.786 192.147 229.323L188.934 232.537C188.532 232.939 187.987 233.165 187.419 233.165Z" fill="#955BA5"/>
<path d="M197.06 223.525C196.194 223.524 195.413 223.002 195.081 222.202C194.75 221.402 194.933 220.48 195.545 219.868L198.759 216.654C199.297 216.097 200.093 215.874 200.842 216.07C201.591 216.266 202.176 216.851 202.372 217.6C202.568 218.349 202.345 219.145 201.788 219.683L198.575 222.897C198.173 223.299 197.628 223.524 197.06 223.525Z" fill="#955BA5"/>
<path d="M245.616 234.718C240.229 236.758 235.982 241.021 233.962 246.416C233.799 246.836 233.391 247.11 232.94 247.1C232.489 247.091 232.093 246.8 231.948 246.373C229.904 241.003 225.663 236.763 220.294 234.718C219.855 234.579 219.557 234.172 219.557 233.711C219.557 233.251 219.855 232.844 220.294 232.705C225.675 230.678 229.922 226.431 231.948 221.05C232.087 220.611 232.495 220.313 232.955 220.313C233.416 220.313 233.823 220.611 233.962 221.05C235.989 226.446 240.256 230.698 245.659 232.705C246.08 232.867 246.354 233.276 246.344 233.727C246.334 234.177 246.043 234.574 245.616 234.718Z" fill="#F3D55B"/>
<path d="M182.15 253.581C179.194 255.027 176.805 257.417 175.358 260.372C175.195 260.76 174.815 261.013 174.394 261.013C173.973 261.013 173.593 260.76 173.43 260.372C171.989 257.413 169.598 255.023 166.639 253.581C166.251 253.418 165.998 253.038 165.998 252.617C165.998 252.196 166.251 251.816 166.639 251.653C169.598 250.211 171.989 247.82 173.43 244.862C173.593 244.473 173.973 244.221 174.394 244.221C174.815 244.221 175.195 244.473 175.358 244.862C176.805 247.817 179.194 250.207 182.15 251.653C182.538 251.816 182.791 252.196 182.791 252.617C182.791 253.038 182.538 253.418 182.15 253.581Z" fill="#F3D55B"/>
</g>
<defs>
<clipPath id="clip0_258_314">
<rect width="412" height="824" rx="18" fill="white"/>
</clipPath>
<clipPath id="clip1_258_314">
<rect width="412" height="52" fill="white"/>
</clipPath>
</defs>
</svg>
